<?xml version="1.0" encoding="utf-8"?>
<!-- Generator: Adobe Illustrator 26.0.1, SVG Export Plug-In . SVG Version: 6.00 Build 0)  -->
<svg version="1.1" id="Ebene_1" xmlns="http://www.w3.org/2000/svg" xmlns:xlink="http://www.w3.org/1999/xlink" x="0px" y="0px"
	 viewBox="0 0 304 30" style="enable-background:new 0 0 304 30;" xml:space="preserve">
<style type="text/css">
	.st0{clip-path:url(#SVGID_00000114793111082134013950000012482611351079926919_);fill:#273477;}
	.st1{fill:#273477;}
	.st2{fill:#239AD6;}
	.st3{fill-rule:evenodd;clip-rule:evenodd;fill:#242958;}
	.st4{fill-rule:evenodd;clip-rule:evenodd;fill:#FFFFFF;}
	.st5{fill-rule:evenodd;clip-rule:evenodd;fill:#E52523;}
	.st6{fill:#13110C;}
	.st7{fill:#005CA9;}
	.st8{fill:#F7A823;}
	.st9{fill-rule:evenodd;clip-rule:evenodd;fill:#FAB51D;}
	.st10{fill-rule:evenodd;clip-rule:evenodd;fill:#E40520;}
	.st11{fill:none;stroke:#FFFFFF;stroke-width:0.216;stroke-miterlimit:2.6131;}
	.st12{fill:#F5B1C6;}
	.st13{fill:#020203;}
</style>
<g>
	<g>
		<defs>
			<rect id="SVGID_1_" x="55.2" y="9.4" width="49" height="13.1"/>
		</defs>
		<clipPath id="SVGID_00000078033141510621252180000012634565212400305841_">
			<use xlink:href="#SVGID_1_"  style="overflow:visible;"/>
		</clipPath>
		<path style="clip-path:url(#SVGID_00000078033141510621252180000012634565212400305841_);fill:#273477;" d="M61,9.4h-3.8
			c-0.3,0-0.5,0.2-0.5,0.4l-1.5,9.8c0,0.2,0.1,0.4,0.3,0.4h1.8c0.3,0,0.5-0.2,0.5-0.4l0.4-2.6c0-0.3,0.3-0.4,0.5-0.4H60
			c2.5,0,4-1.2,4.3-3.6c0.2-1.1,0-1.9-0.5-2.5C63.3,9.7,62.3,9.4,61,9.4L61,9.4z M61.5,13c-0.2,1.4-1.3,1.4-2.3,1.4h-0.6l0.4-2.6
			c0-0.2,0.2-0.3,0.3-0.3h0.3c0.7,0,1.3,0,1.7,0.4C61.5,12.1,61.6,12.5,61.5,13L61.5,13z"/>
	</g>
	<path class="st1" d="M72.4,12.9h-1.8c-0.2,0-0.3,0.1-0.3,0.3l-0.1,0.5l-0.1-0.2c-0.4-0.6-1.3-0.8-2.2-0.8c-2,0-3.7,1.5-4.1,3.7
		c-0.2,1.1,0.1,2.1,0.7,2.8c0.6,0.7,1.4,0.9,2.3,0.9c1.6,0,2.5-1,2.5-1l-0.1,0.5c0,0.2,0.1,0.4,0.3,0.4h1.6c0.3,0,0.5-0.2,0.5-0.4
		l1-6.2C72.8,13.1,72.6,12.9,72.4,12.9L72.4,12.9z M69.9,16.5c-0.2,1-1,1.7-2.1,1.7c-0.5,0-1-0.2-1.2-0.5c-0.3-0.3-0.4-0.8-0.3-1.3
		c0.2-1,1-1.8,2-1.8c0.5,0,0.9,0.2,1.2,0.5C69.9,15.5,70,16,69.9,16.5L69.9,16.5z"/>
	<path class="st1" d="M82.1,12.9h-1.8c-0.2,0-0.3,0.1-0.4,0.2l-2.5,3.7l-1.1-3.6c-0.1-0.2-0.3-0.4-0.5-0.4H74
		c-0.2,0-0.4,0.2-0.3,0.4l2,5.9L73.8,22c-0.1,0.2,0,0.5,0.3,0.5h1.8c0.2,0,0.3-0.1,0.4-0.2l6.1-8.8C82.6,13.2,82.4,12.9,82.1,12.9
		L82.1,12.9z"/>
	<path class="st2" d="M88.2,9.4h-3.8c-0.3,0-0.5,0.2-0.5,0.4l-1.5,9.8c0,0.2,0.1,0.4,0.3,0.4h2c0.2,0,0.3-0.1,0.4-0.3l0.4-2.8
		c0-0.3,0.3-0.4,0.5-0.4h1.2c2.5,0,4-1.2,4.3-3.6c0.2-1.1,0-1.9-0.5-2.5C90.5,9.7,89.5,9.4,88.2,9.4L88.2,9.4z M88.7,13
		c-0.2,1.4-1.3,1.4-2.3,1.4h-0.6l0.4-2.6c0-0.2,0.2-0.3,0.3-0.3h0.3c0.7,0,1.3,0,1.7,0.4C88.7,12.1,88.7,12.5,88.7,13L88.7,13z"/>
	<g>
		<path class="st2" d="M99.6,12.9h-1.8c-0.2,0-0.3,0.1-0.3,0.3l-0.1,0.5l-0.1-0.2c-0.4-0.6-1.3-0.8-2.2-0.8c-2,0-3.7,1.5-4.1,3.7
			c-0.2,1.1,0.1,2.1,0.7,2.8c0.6,0.7,1.4,0.9,2.3,0.9c1.6,0,2.5-1,2.5-1l-0.1,0.5c0,0.2,0.1,0.4,0.3,0.4h1.6c0.3,0,0.5-0.2,0.5-0.4
			l1-6.2C100,13.1,99.8,12.9,99.6,12.9L99.6,12.9z M97.1,16.5c-0.2,1-1,1.7-2.1,1.7c-0.5,0-1-0.2-1.2-0.5c-0.3-0.3-0.4-0.8-0.3-1.3
			c0.2-1,1-1.8,2-1.8c0.5,0,0.9,0.2,1.2,0.5C97,15.5,97.1,16,97.1,16.5L97.1,16.5z"/>
		<path class="st2" d="M101.8,9.7l-1.6,9.9c0,0.2,0.1,0.4,0.3,0.4h1.6c0.3,0,0.5-0.2,0.5-0.4l1.5-9.8c0-0.2-0.1-0.4-0.3-0.4h-1.8
			C101.9,9.4,101.8,9.5,101.8,9.7L101.8,9.7z"/>
	</g>
</g>
<g>
	<g id="layer1_00000117640887463380652320000015961441930361678233_">
		<path id="_92653320_00000124159035626290548500000004307030165648748220_" class="st3" d="M110.9,9.2c0-1.9,1.9-3.4,4.3-3.4h46.3
			c2.3,0,4.3,1.5,4.3,3.4v12.1c0,1.9-1.9,3.4-4.3,3.4h-46.3c-2.3,0-4.3-1.5-4.3-3.4V9.2L110.9,9.2z"/>
		<path id="_92186184_00000062892473455361445240000018320017956682785464_" class="st4" d="M112.7,9.3v11.8c0,1.2,1.2,2.1,2.7,2.1
			h24.3V7.2h-24.3C113.9,7.2,112.7,8.1,112.7,9.3L112.7,9.3z M145.9,15.1c0,0.8-0.5,1.3-1.2,1.3c-0.7,0-1.3-0.5-1.3-1.2
			c0-0.7,0.5-1.2,1.3-1.2C145.4,14,145.9,14.5,145.9,15.1z M141.3,19.5h2v-2.6h0c0.4,0.6,1.2,0.8,1.9,0.8c1.8,0,2.7-1.2,2.7-2.6
			c0-1.1-0.9-2.4-2.5-2.4c-0.9,0-1.8,0.3-2.2,1h0v-0.9h-1.9V19.5z M150.8,16c0-0.5,0.5-0.6,1.2-0.6c0.3,0,0.6,0,0.9,0
			c0,0.6-0.5,1.1-1.3,1.1C151.2,16.6,150.8,16.4,150.8,16z M154.9,17.5c-0.1-0.4-0.1-0.7-0.1-1.1v-1.8c0-1.4-1.3-2-2.8-2
			c-0.9,0-1.6,0.1-2.4,0.3l0,1.1c0.6-0.3,1.2-0.4,1.9-0.4c0.7,0,1.3,0.2,1.4,0.8c-0.3,0-0.6-0.1-1-0.1c-1.1,0-3.1,0.2-3.1,1.6
			c0,1,1,1.5,2.2,1.5c0.8,0,1.4-0.3,1.9-0.9h0c0,0.2,0,0.5,0,0.7H154.9z M155.8,19.5c0.4,0.1,0.8,0.1,1.3,0.1c1.9,0,2.3-1.2,2.9-2.3
			l2.2-4.4h-2l-1.2,3.1h0l-1.3-3.1h-2.2l2.4,4.8c-0.1,0.4-0.5,0.7-1,0.7c-0.3,0-0.5,0-0.8-0.1L155.8,19.5z"/>
		<path id="_47303032_00000066511742508053084890000008923945702146311843_" class="st5" d="M117.7,15.1c0-0.6,0.4-1.2,1.2-1.2
			c0.9,0,1.3,0.6,1.3,1.1c0,0.7-0.6,1.2-1.3,1.2C118.2,16.3,117.7,15.9,117.7,15.1z M122.1,12.8h-1.9v0.9h0c-0.4-0.6-1.1-1-2-1
			c-1.8,0-2.7,1.1-2.7,2.5c0,1.4,1,2.4,2.6,2.4c0.8,0,1.5-0.3,2-0.8h0V17c0,0.9-0.6,1.4-1.8,1.4c-0.9,0-1.4-0.1-2-0.4l-0.1,1.3
			c0.5,0.1,1.3,0.3,2.3,0.3c2.4,0,3.6-0.6,3.6-2.6V12.8z M125.6,10.8h-2V12h2V10.8z M123.5,17.5h2v-4.7h-2V17.5z M131.3,12.8
			c-0.2,0-0.5-0.1-0.7-0.1c-0.9,0-1.4,0.4-1.8,1h0v-0.9H127v4.7h2v-2c0-0.9,0.5-1.5,1.5-1.5c0.2,0,0.5,0,0.7,0.1L131.3,12.8z
			 M134.8,16.5c-0.9,0-1.3-0.6-1.3-1.3c0-0.7,0.4-1.3,1.3-1.3c0.9,0,1.3,0.6,1.3,1.3C136.1,15.9,135.8,16.5,134.8,16.5z M134.8,17.7
			c2,0,3.4-0.9,3.4-2.5c0-1.6-1.5-2.5-3.4-2.5c-2,0-3.4,0.9-3.4,2.5C131.4,16.7,132.9,17.7,134.8,17.7z"/>
	</g>
</g>
<g>
	<path class="st6" d="M181.8,9c0.5-0.6,0.9-1.5,0.8-2.3c-0.8,0-1.7,0.5-2.2,1.1c-0.5,0.5-0.9,1.4-0.8,2.2
		C180.4,10,181.3,9.6,181.8,9 M183.7,14.3c0,2.2,2,2.9,2,2.9c0,0.1-0.3,1-1,2.1c-0.6,0.9-1.3,1.8-2.3,1.8c-1,0-1.3-0.6-2.5-0.6
		c-1.1,0-1.5,0.6-2.4,0.6c-1,0-1.7-1-2.4-1.8c-1.3-1.8-2.3-5.1-0.9-7.3c0.7-1.1,1.8-1.8,3.1-1.8c1,0,1.9,0.6,2.5,0.6
		c0.6,0,1.7-0.8,2.9-0.7c0.5,0,1.9,0.2,2.7,1.4C185.3,11.6,183.7,12.5,183.7,14.3"/>
	<path class="st6" d="M190.3,14.5c0.2,0.1,0.5,0.1,0.8,0.1c0.3,0,0.6,0,0.9,0c1.2,0,2.1-0.3,2.8-0.8c0.7-0.5,1-1.3,1-2.4
		c0-0.5-0.1-1-0.3-1.3c-0.2-0.4-0.4-0.7-0.7-0.9c-0.3-0.2-0.7-0.4-1.1-0.5c-0.4-0.1-0.9-0.2-1.5-0.2c-0.4,0-0.8,0-1.1,0
		c-0.3,0-0.6,0.1-0.7,0.1V14.5L190.3,14.5z M189.4,7.9c0.4-0.1,0.8-0.1,1.3-0.2c0.5-0.1,1-0.1,1.5-0.1c0.8,0,1.5,0.1,2.1,0.3
		c0.6,0.2,1.1,0.5,1.4,0.8c0.3,0.3,0.6,0.7,0.7,1.1c0.2,0.4,0.3,0.9,0.3,1.5c0,0.7-0.1,1.3-0.4,1.8c-0.2,0.5-0.6,0.9-1,1.3
		c-0.4,0.3-0.9,0.6-1.5,0.8c-0.6,0.2-1.2,0.3-1.9,0.3c-0.6,0-1.2,0-1.6-0.1v5.6h-0.9V7.9L189.4,7.9z"/>
	<path class="st6" d="M203.3,15.9c-0.5,0-1,0-1.6,0.1c-0.6,0.1-1.1,0.2-1.5,0.3c-0.5,0.2-0.9,0.4-1.2,0.8c-0.3,0.3-0.5,0.8-0.5,1.3
		c0,0.7,0.2,1.2,0.6,1.5c0.4,0.3,0.8,0.5,1.3,0.5c0.4,0,0.7-0.1,1-0.2c0.3-0.1,0.6-0.2,0.8-0.4c0.2-0.2,0.4-0.4,0.6-0.6
		c0.2-0.2,0.3-0.4,0.4-0.7c0.1-0.3,0.1-0.4,0.1-0.6V15.9L203.3,15.9z M204.2,18.7c0,0.4,0,0.8,0,1.1c0,0.4,0.1,0.7,0.1,1.1h-0.9
		l-0.1-1.3h0c-0.1,0.2-0.3,0.4-0.5,0.5c-0.2,0.2-0.4,0.3-0.6,0.5c-0.2,0.1-0.5,0.3-0.8,0.4c-0.3,0.1-0.7,0.1-1,0.1
		c-0.5,0-0.9-0.1-1.2-0.2c-0.4-0.1-0.6-0.3-0.9-0.6c-0.2-0.2-0.4-0.5-0.5-0.8c-0.1-0.3-0.2-0.6-0.2-0.9c0-1.1,0.5-2,1.4-2.6
		c1-0.6,2.4-0.9,4.3-0.9v-0.3c0-0.2,0-0.5-0.1-0.8c0-0.3-0.2-0.6-0.3-0.9c-0.2-0.3-0.4-0.5-0.7-0.7c-0.3-0.2-0.8-0.3-1.3-0.3
		c-0.4,0-0.8,0.1-1.2,0.2c-0.4,0.1-0.8,0.3-1.1,0.5l-0.3-0.7c0.4-0.3,0.9-0.5,1.3-0.6c0.5-0.1,0.9-0.2,1.4-0.2
		c0.7,0,1.2,0.1,1.6,0.3c0.4,0.2,0.7,0.5,1,0.9c0.2,0.4,0.4,0.7,0.5,1.2c0.1,0.4,0.1,0.9,0.1,1.3V18.7L204.2,18.7z"/>
	<path class="st6" d="M206,11.5l2.4,6.1c0.1,0.3,0.3,0.7,0.4,1c0.1,0.4,0.2,0.7,0.3,1h0c0.1-0.3,0.2-0.6,0.3-1
		c0.1-0.4,0.3-0.7,0.4-1.1l2.3-6.1h1l-2.8,6.9c-0.3,0.7-0.5,1.4-0.8,2c-0.2,0.6-0.5,1.1-0.7,1.6c-0.3,0.5-0.5,0.9-0.8,1.3
		s-0.5,0.7-0.9,1c-0.4,0.3-0.7,0.6-1,0.7c-0.3,0.1-0.5,0.2-0.6,0.3l-0.3-0.8c0.2-0.1,0.5-0.2,0.8-0.4c0.3-0.2,0.6-0.4,0.9-0.7
		c0.2-0.2,0.5-0.5,0.8-0.9c0.3-0.4,0.5-0.8,0.8-1.4c0.1-0.2,0.1-0.3,0.1-0.4c0-0.1,0-0.2-0.1-0.4l-3.5-8.7H206L206,11.5z"/>
</g>
<g>
	<polygon class="st7" points="235.7,22.6 232.2,22.6 234.4,9.2 237.9,9.2 235.7,22.6 	"/>
	<path class="st7" d="M229.3,9.2l-3.3,9.2l-0.4-2l0,0l-1.2-6c0,0-0.1-1.2-1.7-1.2h-5.5l-0.1,0.2c0,0,1.7,0.3,3.6,1.5l3,11.6h3.6
		L233,9.2H229.3L229.3,9.2z"/>
	<path class="st7" d="M252.9,17.9l1.8-5l1,5H252.9L252.9,17.9z M256.7,22.6h3.2l-2.8-13.4h-2.8c-1.3,0-1.6,1-1.6,1l-5.2,12.4h3.6
		l0.7-2h4.4L256.7,22.6L256.7,22.6z"/>
	<path class="st7" d="M247.8,12.5l0.5-2.9c0,0-1.5-0.6-3.1-0.6c-1.7,0-5.8,0.8-5.8,4.4c0,3.5,4.8,3.5,4.8,5.3c0,1.8-4.3,1.5-5.8,0.3
		l-0.5,3c0,0,1.6,0.8,3.9,0.8c2.4,0,6-1.2,6-4.6c0-3.5-4.9-3.8-4.9-5.3C242.9,11.4,246.3,11.6,247.8,12.5L247.8,12.5z"/>
	<path class="st8" d="M225.6,16.5l-1.2-6c0,0-0.1-1.2-1.7-1.2h-5.5l-0.1,0.2c0,0,2.6,0.5,5.2,2.6C224.8,14,225.6,16.5,225.6,16.5
		L225.6,16.5z"/>
</g>
<g>
	<polygon class="st9" points="291.1,26.4 291.6,26.3 292.2,26.3 292.7,26.2 293.2,26.1 293.7,26 294.2,25.9 294.7,25.7 295.2,25.5 
		295.7,25.3 296.1,25.1 296.6,24.8 297,24.6 297.4,24.3 297.8,23.9 298.2,23.6 298.6,23.3 298.9,22.9 299.2,22.5 299.6,22.1 
		299.8,21.7 300.1,21.3 300.4,20.8 300.6,20.4 300.8,19.9 301,19.4 301.2,18.9 301.3,18.4 301.4,17.9 301.5,17.4 301.6,16.9 
		301.6,16.3 301.7,15.8 301.6,15.2 301.6,14.7 301.5,14.2 301.4,13.6 301.3,13.1 301.2,12.6 301,12.1 300.8,11.7 300.6,11.2 
		300.4,10.7 300.1,10.3 299.8,9.9 299.6,9.5 299.2,9.1 298.9,8.7 298.6,8.3 298.2,8 297.8,7.6 297.4,7.3 297,7 296.6,6.7 296.1,6.5 
		295.7,6.3 295.2,6 294.7,5.9 294.2,5.7 293.7,5.6 293.2,5.4 292.7,5.3 292.2,5.3 291.6,5.2 291.1,5.2 290.5,5.2 290,5.3 289.5,5.3 
		288.9,5.4 288.4,5.6 287.9,5.7 287.4,5.9 287,6 286.5,6.3 286,6.5 285.6,6.7 285.2,7 284.8,7.3 284.4,7.6 284,8 283.6,8.3 
		283.3,8.7 282.9,9.1 282.6,9.5 282.3,9.9 282,10.3 281.8,10.7 281.6,11.2 281.3,11.7 281.2,12.1 281,12.6 280.8,13.1 280.7,13.6 
		280.6,14.2 280.6,14.7 280.5,15.2 280.5,15.8 280.5,16.3 280.6,16.9 280.6,17.4 280.7,17.9 280.8,18.4 281,18.9 281.2,19.4 
		281.3,19.9 281.6,20.4 281.8,20.8 282,21.3 282.3,21.7 282.6,22.1 282.9,22.5 283.3,22.9 283.6,23.3 284,23.6 284.4,23.9 
		284.8,24.3 285.2,24.6 285.6,24.8 286,25.1 286.5,25.3 287,25.5 287.4,25.7 287.9,25.9 288.4,26 288.9,26.1 289.5,26.2 290,26.3 
		290.5,26.3 291.1,26.4 291.1,26.4 291.1,26.4 	"/>
	<polygon class="st10" points="276.9,26.4 277.5,26.3 278,26.3 278.5,26.2 279.1,26.1 279.6,26 280.1,25.9 280.6,25.7 281,25.5 
		281.5,25.3 282,25.1 282.4,24.8 282.8,24.6 283.2,24.3 283.6,23.9 284,23.6 284.4,23.3 284.7,22.9 285.1,22.5 285.4,22.1 
		285.7,21.7 286,21.3 286.2,20.8 286.4,20.4 286.6,19.9 286.8,19.4 287,18.9 287.1,18.4 287.3,17.9 287.4,17.4 287.4,16.9 
		287.5,16.3 287.5,15.8 287.5,15.2 287.4,14.7 287.4,14.2 287.3,13.6 287.1,13.1 287,12.6 286.8,12.1 286.6,11.7 286.4,11.2 
		286.2,10.7 286,10.3 285.7,9.9 285.4,9.5 285.1,9.1 284.7,8.7 284.4,8.3 284,8 283.6,7.6 283.2,7.3 282.8,7 282.4,6.7 282,6.5 
		281.5,6.3 281,6 280.6,5.9 280.1,5.7 279.6,5.6 279.1,5.4 278.5,5.3 278,5.3 277.5,5.2 276.9,5.2 276.4,5.2 275.8,5.3 275.3,5.3 
		274.8,5.4 274.3,5.6 273.8,5.7 273.3,5.9 272.8,6 272.3,6.3 271.9,6.5 271.4,6.7 271,7 270.6,7.3 270.2,7.6 269.8,8 269.4,8.3 
		269.1,8.7 268.8,9.1 268.4,9.5 268.1,9.9 267.9,10.3 267.6,10.7 267.4,11.2 267.2,11.7 267,12.1 266.8,12.6 266.7,13.1 266.6,13.6 
		266.5,14.2 266.4,14.7 266.4,15.2 266.3,15.8 266.4,16.3 266.4,16.9 266.5,17.4 266.6,17.9 266.7,18.4 266.8,18.9 267,19.4 
		267.2,19.9 267.4,20.4 267.6,20.8 267.9,21.3 268.1,21.7 268.4,22.1 268.8,22.5 269.1,22.9 269.4,23.3 269.8,23.6 270.2,23.9 
		270.6,24.3 271,24.6 271.4,24.8 271.9,25.1 272.3,25.3 272.8,25.5 273.3,25.7 273.8,25.9 274.3,26 274.8,26.1 275.3,26.2 
		275.8,26.3 276.4,26.3 276.9,26.4 276.9,26.4 276.9,26.4 	"/>
	<polygon class="st9" points="282.8,9.3 288.4,9.3 288.4,8.7 283.2,8.7 282.8,9.3 282.8,9.3 282.8,9.3 	"/>
	<polygon class="st9" points="281.9,10.5 288.4,10.5 288.4,10 282.3,10 281.9,10.5 281.9,10.5 281.9,10.5 	"/>
	<polygon class="st9" points="281.3,11.8 288.4,11.8 288.4,11.2 281.5,11.2 281.3,11.8 281.3,11.8 281.3,11.8 	"/>
	<polygon class="st9" points="280.9,13.1 288.4,13.1 288.4,12.5 281,12.5 280.9,13.1 280.9,13.1 280.9,13.1 	"/>
	<polygon class="st9" points="281.1,19.3 288.4,19.3 288.4,18.7 280.9,18.7 281.1,19.3 281.1,19.3 281.1,19.3 	"/>
	<polygon class="st9" points="281.6,20.5 288.4,20.5 288.4,20 281.4,20 281.6,20.5 281.6,20.5 281.6,20.5 	"/>
	<polygon class="st9" points="282.4,21.8 288.4,21.8 288.4,21.2 282,21.2 282.4,21.8 282.4,21.8 282.4,21.8 	"/>
	<polygon class="st9" points="283.4,23.1 288.4,23.1 288.4,22.5 282.9,22.5 283.4,23.1 283.4,23.1 283.4,23.1 	"/>
	<polygon class="st9" points="280.6,14.4 288.4,14.4 288.4,13.8 280.7,13.8 280.6,14.4 280.6,14.4 280.6,14.4 	"/>
	<polygon class="st9" points="285.3,18 288.3,18 288.3,17.4 285.4,17.4 285.3,18 285.3,18 285.3,18 	"/>
	<polygon class="st9" points="285.6,16.7 288.3,16.7 288.3,16.1 285.7,16.1 285.6,16.7 285.6,16.7 285.6,16.7 	"/>
	<polygon class="st9" points="280.4,16.1 281.2,16.1 281.2,16.7 280.4,16.7 280.4,16.1 280.4,16.1 280.4,16.1 	"/>
	<polygon class="st4" points="279,15.4 278.9,15.4 278.9,15.4 278.8,15.4 278.8,15.4 278.7,15.4 278.7,15.4 278.6,15.4 278.6,15.4 
		278.5,15.4 278.5,15.4 278.4,15.4 278.4,15.4 278.3,15.4 278.2,15.4 278.1,15.4 278,15.4 277.9,15.4 277.9,15.4 277.8,15.4 
		277.7,15.5 277.7,15.5 277.7,15.5 277.6,15.5 277.6,15.6 277.6,15.6 277.5,15.7 277.5,15.7 277.5,15.7 277.6,15.8 277.6,15.8 
		277.6,15.9 277.6,15.9 277.7,16 277.8,16.1 277.9,16.1 278,16.1 278.1,16.2 278.2,16.2 278.3,16.3 278.5,16.3 278.6,16.4 
		278.7,16.4 278.8,16.5 278.8,16.6 278.9,16.8 278.9,16.9 278.9,17.1 278.9,17.3 278.9,17.5 278.9,17.7 278.8,17.8 278.7,17.9 
		278.6,18 278.5,18.1 278.4,18.2 278.3,18.3 278.2,18.3 278.1,18.4 278,18.4 277.9,18.4 277.7,18.4 277.6,18.5 277.5,18.5 
		277.4,18.5 277.2,18.5 277.1,18.5 277,18.5 276.9,18.5 276.7,18.5 276.7,18.4 276.6,18.4 276.5,18.4 276.4,18.4 276.3,18.4 
		276.3,18.4 276.2,18.4 276.2,18.4 276.1,18.3 276,18.3 276,18.3 276.1,17.5 276.2,17.5 276.2,17.5 276.3,17.5 276.3,17.6 
		276.4,17.6 276.5,17.6 276.5,17.6 276.6,17.6 276.7,17.6 276.8,17.6 276.9,17.7 277,17.7 277.1,17.7 277.2,17.7 277.3,17.7 
		277.4,17.7 277.5,17.6 277.6,17.6 277.7,17.6 277.7,17.5 277.7,17.5 277.8,17.4 277.8,17.4 277.8,17.3 277.8,17.2 277.8,17.1 
		277.7,17 277.6,17 277.5,16.9 277.4,16.9 277.3,16.8 277.1,16.8 277,16.7 276.8,16.6 276.7,16.5 276.6,16.4 276.5,16.3 276.5,16.1 
		276.4,15.9 276.4,15.7 276.4,15.6 276.5,15.4 276.5,15.3 276.5,15.2 276.6,15.1 276.7,15 276.7,14.9 276.8,14.8 276.9,14.8 
		277,14.7 277.2,14.7 277.3,14.6 277.5,14.6 277.7,14.6 277.8,14.6 278.1,14.6 278.2,14.6 278.3,14.6 278.4,14.6 278.5,14.6 
		278.6,14.6 278.7,14.6 278.8,14.6 278.8,14.6 278.9,14.6 278.9,14.6 279,14.6 279,14.6 279.1,14.6 279.1,14.6 279.1,14.6 
		279.2,14.6 279,15.4 279,15.4 279,15.4 	"/>
	<polyline class="st11" points="279,15.4 279,15.4 278.9,15.4 278.9,15.4 278.8,15.4 278.8,15.4 278.7,15.4 278.7,15.4 278.6,15.4 
		278.6,15.4 278.5,15.4 278.5,15.4 278.4,15.4 278.4,15.4 278.3,15.4 278.2,15.4 278.1,15.4 278,15.4 278,15.4 277.9,15.4 
		277.9,15.4 277.8,15.4 277.7,15.5 277.7,15.5 277.7,15.5 277.6,15.5 277.6,15.6 277.6,15.6 277.5,15.7 277.5,15.7 277.5,15.7 
		277.6,15.8 277.6,15.8 277.6,15.9 277.6,15.9 277.6,15.9 277.7,16 277.8,16.1 277.9,16.1 278,16.1 278.1,16.2 278.2,16.2 
		278.3,16.3 278.5,16.3 278.6,16.4 278.7,16.4 278.8,16.5 278.8,16.6 278.9,16.8 278.9,16.9 278.9,17.1 278.9,17.3 278.9,17.3 
		278.9,17.5 278.9,17.7 278.8,17.8 278.7,17.9 278.6,18 278.5,18.1 278.4,18.2 278.3,18.3 278.2,18.3 278.1,18.4 278,18.4 
		277.9,18.4 277.7,18.4 277.6,18.5 277.5,18.5 277.4,18.5 277.4,18.5 277.2,18.5 277.1,18.5 277,18.5 276.9,18.5 276.7,18.5 
		276.7,18.4 276.6,18.4 276.5,18.4 276.4,18.4 276.3,18.4 276.3,18.4 276.2,18.4 276.2,18.4 276.1,18.3 276,18.3 276,18.3 
		276.1,17.5 276.1,17.5 276.2,17.5 276.2,17.5 276.3,17.5 276.3,17.6 276.4,17.6 276.5,17.6 276.5,17.6 276.6,17.6 276.7,17.6 
		276.8,17.6 276.9,17.7 277,17.7 277.1,17.7 277.2,17.7 277.3,17.7 277.4,17.7 277.4,17.7 277.5,17.6 277.6,17.6 277.7,17.6 
		277.7,17.5 277.7,17.5 277.8,17.4 277.8,17.4 277.8,17.3 277.8,17.3 277.8,17.2 277.8,17.1 277.7,17 277.6,17 277.5,16.9 
		277.4,16.9 277.3,16.8 277.1,16.8 277,16.7 276.8,16.6 276.7,16.5 276.6,16.4 276.5,16.3 276.5,16.1 276.4,15.9 276.4,15.7 
		276.4,15.7 276.4,15.6 276.5,15.4 276.5,15.3 276.5,15.2 276.6,15.1 276.7,15 276.7,14.9 276.8,14.8 276.9,14.8 277,14.7 
		277.2,14.7 277.3,14.6 277.5,14.6 277.7,14.6 277.8,14.6 278.1,14.6 278.1,14.6 278.2,14.6 278.3,14.6 278.4,14.6 278.5,14.6 
		278.6,14.6 278.7,14.6 278.8,14.6 278.8,14.6 278.9,14.6 278.9,14.6 279,14.6 279,14.6 279.1,14.6 279.1,14.6 279.1,14.6 
		279.2,14.6 279,15.4 	"/>
	<polygon class="st4" points="279.8,13.8 280.8,13.8 280.7,14.6 281.3,14.6 281.1,15.4 280.5,15.4 280.2,17.4 280.2,17.5 
		280.2,17.5 280.2,17.6 280.3,17.6 280.3,17.6 280.4,17.7 280.5,17.7 280.6,17.7 280.6,17.7 280.7,17.7 280.8,17.7 280.8,17.7 
		280.9,17.6 280.9,17.6 280.9,17.6 280.9,17.6 280.8,18.3 280.8,18.3 280.8,18.3 280.7,18.3 280.7,18.3 280.7,18.4 280.7,18.4 
		280.6,18.4 280.6,18.4 280.6,18.4 280.5,18.4 280.5,18.4 280.4,18.4 280.4,18.4 280.3,18.4 280.3,18.4 280.2,18.4 279.9,18.4 
		279.8,18.4 279.7,18.4 279.6,18.4 279.5,18.4 279.4,18.3 279.3,18.3 279.3,18.3 279.2,18.2 279.2,18.2 279.1,18.1 279.1,18 
		279.1,18 279.1,17.9 279.1,17.8 279.1,17.7 279.1,17.7 279.8,13.8 279.8,13.8 279.8,13.8 	"/>
	<polyline class="st11" points="279.8,13.8 280.8,13.8 280.7,14.6 281.3,14.6 281.1,15.4 280.5,15.4 280.2,17.4 280.2,17.4 
		280.2,17.5 280.2,17.5 280.2,17.6 280.3,17.6 280.3,17.6 280.4,17.7 280.5,17.7 280.6,17.7 280.6,17.7 280.6,17.7 280.7,17.7 
		280.8,17.7 280.8,17.7 280.9,17.6 280.9,17.6 280.9,17.6 280.9,17.6 280.8,18.3 280.8,18.3 280.8,18.3 280.8,18.3 280.7,18.3 
		280.7,18.3 280.7,18.4 280.7,18.4 280.6,18.4 280.6,18.4 280.6,18.4 280.5,18.4 280.5,18.4 280.4,18.4 280.4,18.4 280.3,18.4 
		280.3,18.4 280.2,18.4 279.9,18.4 279.9,18.4 279.8,18.4 279.7,18.4 279.6,18.4 279.5,18.4 279.4,18.3 279.3,18.3 279.3,18.3 
		279.2,18.2 279.2,18.2 279.1,18.1 279.1,18 279.1,18 279.1,17.9 279.1,17.8 279.1,17.7 279.1,17.7 279.8,13.8 	"/>
	<polygon class="st4" points="282,16.8 282,16.8 282,16.9 282,17 282,17 282.1,17.1 282.1,17.2 282.1,17.2 282.2,17.3 282.2,17.4 
		282.3,17.4 282.3,17.5 282.4,17.5 282.5,17.5 282.5,17.6 282.6,17.6 282.7,17.6 282.8,17.6 282.9,17.6 283,17.7 283.1,17.7 
		283.1,17.7 283.2,17.7 283.3,17.7 283.4,17.7 283.5,17.6 283.6,17.6 283.7,17.6 283.8,17.6 283.9,17.5 284,17.5 284.1,17.4 
		284.2,17.4 284.1,18.2 284,18.3 284,18.3 283.9,18.3 283.9,18.3 283.8,18.4 283.8,18.4 283.7,18.4 283.6,18.4 283.6,18.4 
		283.5,18.4 283.4,18.4 283.3,18.4 283.2,18.4 283.2,18.4 283,18.4 282.9,18.4 282.7,18.4 282.6,18.4 282.4,18.4 282.2,18.4 
		282,18.3 281.9,18.2 281.7,18.1 281.6,18 281.4,17.9 281.3,17.8 281.2,17.6 281.1,17.4 281.1,17.2 281,17 281,16.7 281,16.4 
		281,16.3 281.1,16.2 281.1,16 281.1,15.9 281.2,15.7 281.2,15.6 281.3,15.4 281.4,15.3 281.5,15.1 281.7,15 281.8,14.9 282,14.8 
		282.2,14.7 282.4,14.6 282.7,14.6 283,14.6 283.1,14.6 283.3,14.6 283.4,14.6 283.6,14.6 283.7,14.7 283.9,14.7 284,14.8 
		284.1,14.9 284.2,15.1 284.3,15.2 284.4,15.4 284.4,15.5 284.4,15.8 284.4,16 284.4,16.3 284.4,16.6 284.4,16.8 281.8,16.8 
		281.9,16.1 283.5,16.1 283.5,16 283.5,15.9 283.5,15.8 283.5,15.8 283.4,15.7 283.4,15.6 283.4,15.6 283.3,15.5 283.3,15.5 
		283.3,15.5 283.2,15.4 283.1,15.4 283.1,15.4 283,15.4 283,15.3 282.9,15.3 282.8,15.3 282.8,15.4 282.7,15.4 282.7,15.4 
		282.6,15.4 282.5,15.5 282.5,15.5 282.4,15.5 282.4,15.6 282.3,15.6 282.3,15.7 282.3,15.8 282.2,15.8 282.2,15.9 282.2,16 
		282.2,16 282,16.8 282,16.8 282,16.8 	"/>
	<polyline class="st11" points="282,16.8 282,16.8 282,16.8 282,16.9 282,17 282,17 282.1,17.1 282.1,17.2 282.1,17.2 282.2,17.3 
		282.2,17.4 282.3,17.4 282.3,17.5 282.4,17.5 282.5,17.5 282.5,17.6 282.6,17.6 282.7,17.6 282.7,17.6 282.8,17.6 282.9,17.6 
		283,17.7 283.1,17.7 283.1,17.7 283.2,17.7 283.3,17.7 283.4,17.7 283.5,17.6 283.6,17.6 283.7,17.6 283.8,17.6 283.9,17.5 
		284,17.5 284.1,17.4 284.2,17.4 284.1,18.2 284.1,18.2 284,18.3 284,18.3 283.9,18.3 283.9,18.3 283.8,18.4 283.8,18.4 283.7,18.4 
		283.6,18.4 283.6,18.4 283.5,18.4 283.4,18.4 283.3,18.4 283.2,18.4 283.2,18.4 283,18.4 282.9,18.4 282.9,18.4 282.7,18.4 
		282.6,18.4 282.4,18.4 282.2,18.4 282,18.3 281.9,18.2 281.7,18.1 281.6,18 281.4,17.9 281.3,17.8 281.2,17.6 281.1,17.4 
		281.1,17.2 281,17 281,16.7 281,16.4 281,16.4 281,16.3 281.1,16.2 281.1,16 281.1,15.9 281.2,15.7 281.2,15.6 281.3,15.4 
		281.4,15.3 281.5,15.1 281.7,15 281.8,14.9 282,14.8 282.2,14.7 282.4,14.6 282.7,14.6 283,14.6 283,14.6 283.1,14.6 283.3,14.6 
		283.4,14.6 283.6,14.6 283.7,14.7 283.9,14.7 284,14.8 284.1,14.9 284.2,15.1 284.3,15.2 284.4,15.4 284.4,15.5 284.4,15.8 
		284.4,16 284.4,16.3 284.4,16.6 284.4,16.8 281.8,16.8 281.9,16.1 283.5,16.1 283.5,16.1 283.5,16 283.5,15.9 283.5,15.8 
		283.5,15.8 283.4,15.7 283.4,15.6 283.4,15.6 283.3,15.5 283.3,15.5 283.3,15.5 283.2,15.4 283.1,15.4 283.1,15.4 283,15.4 
		283,15.3 282.9,15.3 282.9,15.3 282.8,15.3 282.8,15.4 282.7,15.4 282.7,15.4 282.6,15.4 282.5,15.5 282.5,15.5 282.4,15.5 
		282.4,15.6 282.3,15.6 282.3,15.7 282.3,15.8 282.2,15.8 282.2,15.9 282.2,16 282.2,16 282,16.8 	"/>
	<polygon class="st4" points="290.5,14.8 290.5,14.8 290.5,14.8 290.4,14.8 290.4,14.7 290.3,14.7 290.2,14.7 290.2,14.7 
		290.1,14.7 290,14.6 290,14.6 289.9,14.6 289.8,14.6 289.7,14.6 289.7,14.6 289.6,14.6 289.5,14.6 289.4,14.6 289.3,14.6 
		289.2,14.6 289.1,14.6 289,14.7 288.9,14.7 288.8,14.7 288.7,14.8 288.6,14.9 288.5,15 288.4,15.1 288.3,15.2 288.3,15.4 
		288.2,15.6 288.1,15.8 288.1,16 288,16.1 288,16.2 288,16.4 288,16.5 288,16.6 288.1,16.7 288.1,16.8 288.1,16.9 288.2,17 
		288.3,17.1 288.3,17.2 288.4,17.3 288.5,17.3 288.6,17.4 288.7,17.4 288.9,17.5 288.9,17.5 289,17.5 289,17.5 289.1,17.5 
		289.2,17.5 289.3,17.5 289.4,17.5 289.5,17.5 289.5,17.5 289.6,17.5 289.7,17.5 289.8,17.4 289.9,17.4 290,17.3 290.1,17.3 
		290.1,17.2 290,18.2 290,18.2 289.9,18.2 289.9,18.2 289.9,18.3 289.8,18.3 289.8,18.3 289.7,18.3 289.7,18.4 289.6,18.4 
		289.5,18.4 289.4,18.4 289.3,18.4 289.1,18.4 289,18.4 288.8,18.4 288.6,18.4 288.4,18.4 288.2,18.4 288.1,18.3 287.9,18.2 
		287.8,18.2 287.6,18.1 287.5,17.9 287.3,17.8 287.2,17.6 287.1,17.4 287,17.2 287,17 286.9,16.8 286.9,16.5 286.9,16.3 287,16 
		287,15.8 287,15.7 287.1,15.5 287.1,15.4 287.1,15.3 287.2,15.2 287.2,15 287.3,14.9 287.3,14.8 287.4,14.7 287.4,14.6 287.5,14.5 
		287.6,14.4 287.6,14.3 287.7,14.3 287.8,14.2 287.9,14.1 287.9,14.1 288,14 288.1,13.9 288.2,13.9 288.3,13.8 288.4,13.8 
		288.5,13.8 288.6,13.7 288.7,13.7 288.9,13.7 289,13.6 289.1,13.6 289.2,13.6 289.4,13.6 289.5,13.6 289.6,13.6 289.7,13.6 
		289.8,13.6 289.9,13.6 290,13.7 290.1,13.7 290.2,13.7 290.3,13.7 290.4,13.7 290.5,13.8 290.5,13.8 290.6,13.8 290.6,13.8 
		290.7,13.8 290.7,13.8 290.7,13.9 290.5,14.8 290.5,14.8 290.5,14.8 	"/>
	<polyline class="st11" points="290.5,14.8 290.5,14.8 290.5,14.8 290.5,14.8 290.4,14.8 290.4,14.7 290.3,14.7 290.2,14.7 
		290.2,14.7 290.1,14.7 290,14.6 290,14.6 289.9,14.6 289.8,14.6 289.7,14.6 289.7,14.6 289.6,14.6 289.5,14.6 289.5,14.6 
		289.4,14.6 289.3,14.6 289.2,14.6 289.1,14.6 289,14.7 288.9,14.7 288.8,14.7 288.7,14.8 288.6,14.9 288.5,15 288.4,15.1 
		288.3,15.2 288.3,15.4 288.2,15.6 288.1,15.8 288.1,16 288.1,16 288,16.1 288,16.2 288,16.4 288,16.5 288,16.6 288.1,16.7 
		288.1,16.8 288.1,16.9 288.2,17 288.3,17.1 288.3,17.2 288.4,17.3 288.5,17.3 288.6,17.4 288.7,17.4 288.9,17.5 288.9,17.5 
		288.9,17.5 289,17.5 289,17.5 289.1,17.5 289.2,17.5 289.3,17.5 289.4,17.5 289.5,17.5 289.5,17.5 289.6,17.5 289.7,17.5 
		289.8,17.4 289.9,17.4 290,17.3 290.1,17.3 290.1,17.2 290,18.2 290,18.2 290,18.2 289.9,18.2 289.9,18.2 289.9,18.3 289.8,18.3 
		289.8,18.3 289.7,18.3 289.7,18.4 289.6,18.4 289.5,18.4 289.4,18.4 289.3,18.4 289.1,18.4 289,18.4 288.8,18.4 288.6,18.4 
		288.6,18.4 288.4,18.4 288.2,18.4 288.1,18.3 287.9,18.2 287.8,18.2 287.6,18.1 287.5,17.9 287.3,17.8 287.2,17.6 287.1,17.4 
		287,17.2 287,17 286.9,16.8 286.9,16.5 286.9,16.3 287,16 287,16 287,15.8 287,15.7 287.1,15.5 287.1,15.4 287.1,15.3 287.2,15.2 
		287.2,15 287.3,14.9 287.3,14.8 287.4,14.7 287.4,14.6 287.5,14.5 287.6,14.4 287.6,14.3 287.7,14.3 287.8,14.2 287.9,14.1 
		287.9,14.1 288,14 288.1,13.9 288.2,13.9 288.3,13.8 288.4,13.8 288.5,13.8 288.6,13.7 288.7,13.7 288.9,13.7 289,13.6 289.1,13.6 
		289.2,13.6 289.4,13.6 289.5,13.6 289.5,13.6 289.6,13.6 289.7,13.6 289.8,13.6 289.9,13.6 290,13.7 290.1,13.7 290.2,13.7 
		290.3,13.7 290.4,13.7 290.5,13.8 290.5,13.8 290.6,13.8 290.6,13.8 290.7,13.8 290.7,13.8 290.7,13.9 290.5,14.8 	"/>
	<polygon class="st4" points="299.3,18.4 298.3,18.4 298.4,18 298.4,18 298.4,18.1 298.3,18.1 298.2,18.2 298.2,18.3 298.1,18.3 
		298,18.3 298,18.4 297.9,18.4 297.8,18.4 297.8,18.4 297.7,18.5 297.6,18.5 297.6,18.5 297.5,18.5 297.4,18.5 297.3,18.5 
		297.2,18.5 297,18.4 296.8,18.4 296.7,18.3 296.6,18.2 296.5,18.1 296.4,17.9 296.3,17.8 296.2,17.6 296.1,17.5 296.1,17.3 
		296.1,17.1 296.1,16.9 296.1,16.7 296.1,16.6 296.1,16.4 296.2,16.2 296.2,16 296.3,15.8 296.4,15.6 296.5,15.5 296.6,15.3 
		296.7,15.2 296.8,15.1 296.9,15 297.1,14.9 297.2,14.8 297.3,14.7 297.5,14.7 297.6,14.7 297.8,14.6 297.9,14.6 298,14.6 
		298.1,14.6 298.2,14.7 298.3,14.7 298.4,14.7 298.5,14.7 298.5,14.8 298.6,14.8 298.7,14.9 298.7,14.9 298.8,15 298.8,15 298.8,15 
		298.9,15.1 298.9,15.1 298.9,15.2 298.9,15.2 299.2,13.8 300.1,13.8 299.3,18.4 299.3,18.4 299.3,18.4 	"/>
	<polyline class="st11" points="299.3,18.4 298.3,18.4 298.4,18 298.4,18 298.4,18 298.4,18.1 298.3,18.1 298.2,18.2 298.2,18.3 
		298.1,18.3 298,18.3 298,18.4 297.9,18.4 297.8,18.4 297.8,18.4 297.7,18.5 297.6,18.5 297.6,18.5 297.5,18.5 297.4,18.5 
		297.3,18.5 297.3,18.5 297.2,18.5 297,18.4 296.8,18.4 296.7,18.3 296.6,18.2 296.5,18.1 296.4,17.9 296.3,17.8 296.2,17.6 
		296.1,17.5 296.1,17.3 296.1,17.1 296.1,16.9 296.1,16.7 296.1,16.6 296.1,16.4 296.1,16.4 296.2,16.2 296.2,16 296.3,15.8 
		296.4,15.6 296.5,15.5 296.6,15.3 296.7,15.2 296.8,15.1 296.9,15 297.1,14.9 297.2,14.8 297.3,14.7 297.5,14.7 297.6,14.7 
		297.8,14.6 297.9,14.6 297.9,14.6 298,14.6 298.1,14.6 298.2,14.7 298.3,14.7 298.4,14.7 298.5,14.7 298.5,14.8 298.6,14.8 
		298.7,14.9 298.7,14.9 298.8,15 298.8,15 298.8,15 298.9,15.1 298.9,15.1 298.9,15.2 298.9,15.2 299.2,13.8 300.1,13.8 299.3,18.4 
			"/>
	<polygon class="st9" points="297.7,17.6 297.8,17.6 297.9,17.6 298,17.5 298.1,17.5 298.1,17.4 298.2,17.4 298.3,17.3 298.3,17.3 
		298.4,17.2 298.4,17.1 298.5,17 298.5,16.9 298.6,16.9 298.6,16.8 298.6,16.7 298.6,16.6 298.7,16.5 298.7,16.4 298.7,16.3 
		298.7,16.2 298.7,16.1 298.6,16 298.6,15.9 298.6,15.8 298.6,15.8 298.5,15.7 298.5,15.6 298.4,15.6 298.3,15.5 298.3,15.5 
		298.2,15.5 298.1,15.5 298,15.5 298,15.5 297.9,15.5 297.8,15.6 297.7,15.6 297.6,15.7 297.6,15.7 297.5,15.8 297.5,15.9 297.4,16 
		297.4,16 297.3,16.1 297.3,16.2 297.3,16.3 297.2,16.4 297.2,16.5 297.2,16.7 297.2,16.9 297.2,17 297.3,17.2 297.4,17.4 
		297.4,17.5 297.6,17.6 297.7,17.6 297.7,17.6 297.7,17.6 	"/>
	<polygon class="st4" points="275.8,17.7 275.7,18.4 274.8,18.4 274.8,18.3 274.8,18.2 274.8,18.1 274.8,18 274.8,18.1 274.7,18.1 
		274.7,18.2 274.6,18.2 274.5,18.3 274.4,18.3 274.3,18.4 274.2,18.4 274.1,18.4 274,18.5 273.9,18.5 273.8,18.5 273.7,18.5 
		273.6,18.5 273.5,18.5 273.4,18.5 273.3,18.4 273.2,18.4 273.1,18.4 273,18.3 272.9,18.3 272.8,18.2 272.8,18.1 272.7,18.1 
		272.7,18 272.6,17.9 272.6,17.8 272.6,17.7 272.6,17.7 272.6,17.6 272.6,17.5 272.6,17.4 272.6,17.3 272.6,17.1 272.6,17 
		272.7,16.9 272.7,16.8 272.8,16.7 272.9,16.6 273,16.5 273.1,16.4 273.2,16.3 273.3,16.3 273.4,16.2 273.5,16.2 273.6,16.1 
		273.7,16.1 273.8,16.1 273.8,16.1 273.9,16.1 273.9,16.1 273.9,16.1 274,16.1 274,16.1 274.1,16 274.1,16 274.2,16 274.3,16 
		274.3,16 274.4,16 274.4,16 274.5,16 274.5,16 274.6,16 274.7,16 274.7,16 274.8,16 274.9,16 275,16 275,16 275.1,16 275.1,16 
		275.1,16 275.1,15.9 275.1,15.9 275.1,15.8 275.1,15.7 275.1,15.6 275,15.6 275,15.5 274.9,15.5 274.8,15.4 274.7,15.4 274.6,15.4 
		274.5,15.4 274.4,15.4 274.3,15.4 274.2,15.4 274.1,15.4 274,15.4 273.9,15.4 273.8,15.5 273.7,15.5 273.5,15.5 273.5,15.5 
		273.4,15.5 273.3,15.5 273.2,15.6 273.2,15.6 273.1,15.6 273.4,14.7 273.5,14.7 273.5,14.7 273.6,14.7 273.7,14.6 273.8,14.6 
		273.9,14.6 274,14.6 274.1,14.6 274.2,14.6 274.3,14.6 274.4,14.6 274.5,14.6 274.6,14.6 274.7,14.6 274.9,14.6 275,14.6 
		275.1,14.6 275.2,14.6 275.3,14.6 275.4,14.7 275.5,14.7 275.6,14.8 275.7,14.8 275.8,14.9 275.9,15 276,15.1 276.1,15.1 
		276.1,15.3 276.2,15.4 276.2,15.5 276.2,15.6 276.2,15.8 275.8,17.7 275.8,17.7 275.8,17.7 	"/>
	<polyline class="st11" points="275.8,17.7 275.7,18.4 274.8,18.4 274.8,18.4 274.8,18.3 274.8,18.2 274.8,18.1 274.8,18 274.8,18 
		274.8,18.1 274.7,18.1 274.7,18.2 274.6,18.2 274.5,18.3 274.4,18.3 274.3,18.4 274.2,18.4 274.1,18.4 274,18.5 273.9,18.5 
		273.8,18.5 273.7,18.5 273.6,18.5 273.5,18.5 273.4,18.5 273.4,18.5 273.3,18.4 273.2,18.4 273.1,18.4 273,18.3 272.9,18.3 
		272.8,18.2 272.8,18.1 272.7,18.1 272.7,18 272.6,17.9 272.6,17.8 272.6,17.7 272.6,17.7 272.6,17.6 272.6,17.5 272.6,17.4 
		272.6,17.4 272.6,17.3 272.6,17.1 272.6,17 272.7,16.9 272.7,16.8 272.8,16.7 272.9,16.6 273,16.5 273.1,16.4 273.2,16.3 
		273.3,16.3 273.4,16.2 273.5,16.2 273.6,16.1 273.7,16.1 273.8,16.1 273.8,16.1 273.8,16.1 273.9,16.1 273.9,16.1 273.9,16.1 
		274,16.1 274,16.1 274.1,16 274.1,16 274.2,16 274.3,16 274.3,16 274.4,16 274.4,16 274.5,16 274.5,16 274.6,16 274.6,16 274.7,16 
		274.7,16 274.8,16 274.9,16 275,16 275,16 275.1,16 275.1,16 275.1,16 275.1,16 275.1,15.9 275.1,15.9 275.1,15.8 275.1,15.8 
		275.1,15.7 275.1,15.6 275,15.6 275,15.5 274.9,15.5 274.8,15.4 274.7,15.4 274.6,15.4 274.6,15.4 274.5,15.4 274.4,15.4 
		274.3,15.4 274.2,15.4 274.1,15.4 274,15.4 273.9,15.4 273.8,15.5 273.7,15.5 273.5,15.5 273.5,15.5 273.4,15.5 273.3,15.5 
		273.2,15.6 273.2,15.6 273.1,15.6 273.4,14.7 273.4,14.7 273.5,14.7 273.5,14.7 273.6,14.7 273.7,14.6 273.8,14.6 273.9,14.6 
		274,14.6 274.1,14.6 274.2,14.6 274.3,14.6 274.4,14.6 274.5,14.6 274.6,14.6 274.7,14.6 274.9,14.6 275,14.6 275,14.6 275.1,14.6 
		275.2,14.6 275.3,14.6 275.4,14.7 275.5,14.7 275.6,14.8 275.7,14.8 275.8,14.9 275.9,15 276,15.1 276.1,15.1 276.1,15.3 
		276.2,15.4 276.2,15.5 276.2,15.6 276.2,15.8 275.8,17.7 	"/>
	<polygon class="st10" points="275,16.7 275,16.7 274.9,16.7 274.9,16.7 274.9,16.7 274.8,16.7 274.8,16.7 274.7,16.7 274.7,16.7 
		274.6,16.7 274.6,16.7 274.5,16.7 274.5,16.7 274.4,16.7 274.4,16.7 274.3,16.7 274.3,16.7 274.2,16.7 274.2,16.7 274.2,16.8 
		274.1,16.8 274.1,16.8 274,16.8 274,16.8 273.9,16.9 273.9,16.9 273.9,16.9 273.8,17 273.8,17 273.7,17.1 273.7,17.1 273.7,17.2 
		273.7,17.2 273.7,17.4 273.7,17.5 273.7,17.5 273.8,17.6 273.8,17.6 273.9,17.6 273.9,17.6 274,17.7 274.1,17.6 274.2,17.6 
		274.3,17.6 274.4,17.6 274.5,17.6 274.5,17.5 274.6,17.5 274.6,17.5 274.7,17.4 274.7,17.4 274.8,17.4 274.8,17.3 274.8,17.3 
		274.8,17.2 274.9,17.2 274.9,17.1 274.9,17 274.9,16.9 274.9,16.8 275,16.7 275,16.7 275,16.7 	"/>
	<polygon class="st4" points="268.3,18.4 267.3,18.4 268.2,13.8 269.8,13.8 270,16.5 271.2,13.8 272.9,13.8 272.1,18.4 271.1,18.4 
		271.7,14.9 271.7,14.9 270.3,18.4 269.2,18.4 269.1,18.3 269.1,17.9 269.1,17.4 269.1,16.7 269,16.1 269,15.5 269,15.1 269,14.9 
		268.9,14.9 268.9,14.9 268.9,14.9 268.9,14.9 268.3,18.4 268.3,18.4 268.3,18.4 	"/>
	<polyline class="st11" points="268.3,18.4 267.3,18.4 268.2,13.8 269.8,13.8 270,16.5 271.2,13.8 272.9,13.8 272.1,18.4 
		271.1,18.4 271.7,14.9 271.7,14.9 270.3,18.4 269.2,18.4 269.2,18.4 269.1,18.3 269.1,17.9 269.1,17.4 269.1,16.7 269,16.1 
		269,15.5 269,15.1 269,14.9 269,14.9 268.9,14.9 268.9,14.9 268.9,14.9 268.9,14.9 268.3,18.4 	"/>
	<polygon class="st4" points="293.5,17.7 293.4,18.4 292.5,18.4 292.5,18.3 292.5,18.2 292.5,18.1 292.5,18 292.4,18.1 292.4,18.1 
		292.3,18.2 292.3,18.2 292.2,18.3 292.1,18.3 292,18.4 291.9,18.4 291.8,18.4 291.7,18.5 291.6,18.5 291.5,18.5 291.4,18.5 
		291.3,18.5 291.2,18.5 291.1,18.5 291,18.4 290.9,18.4 290.8,18.4 290.7,18.3 290.6,18.3 290.5,18.2 290.5,18.1 290.4,18.1 
		290.4,18 290.4,17.9 290.3,17.8 290.3,17.7 290.3,17.7 290.3,17.6 290.3,17.5 290.3,17.4 290.3,17.3 290.3,17.1 290.3,17 
		290.4,16.9 290.4,16.8 290.5,16.7 290.6,16.6 290.7,16.5 290.8,16.4 290.9,16.3 291,16.3 291.1,16.2 291.2,16.2 291.3,16.1 
		291.4,16.1 291.5,16.1 291.5,16.1 291.6,16.1 291.6,16.1 291.6,16.1 291.7,16.1 291.7,16.1 291.8,16 291.8,16 291.9,16 292,16 
		292,16 292.1,16 292.1,16 292.2,16 292.2,16 292.3,16 292.4,16 292.4,16 292.5,16 292.6,16 292.7,16 292.7,16 292.8,16 292.8,16 
		292.8,16 292.8,15.9 292.8,15.9 292.8,15.8 292.8,15.7 292.8,15.6 292.7,15.6 292.7,15.5 292.6,15.5 292.5,15.4 292.4,15.4 
		292.4,15.4 292.3,15.4 292.2,15.4 292,15.4 291.9,15.4 291.8,15.4 291.7,15.4 291.6,15.4 291.5,15.5 291.4,15.5 291.3,15.5 
		291.2,15.5 291.1,15.5 291,15.5 290.9,15.6 290.9,15.6 290.9,15.6 291.1,14.7 291.2,14.7 291.3,14.7 291.3,14.7 291.4,14.6 
		291.5,14.6 291.6,14.6 291.7,14.6 291.8,14.6 291.9,14.6 292,14.6 292.1,14.6 292.2,14.6 292.3,14.6 292.4,14.6 292.6,14.6 
		292.7,14.6 292.8,14.6 292.9,14.6 293,14.6 293.1,14.7 293.2,14.7 293.3,14.8 293.4,14.8 293.5,14.9 293.6,15 293.7,15.1 
		293.8,15.1 293.8,15.3 293.9,15.4 293.9,15.5 293.9,15.6 293.9,15.8 293.5,17.7 293.5,17.7 293.5,17.7 	"/>
	<polygon class="st4" points="293.4,18.5 293.4,18.4 293.5,17.7 293.5,17.6 293.3,18.4 293.4,18.4 293.4,18.5 293.4,18.5 
		293.4,18.4 293.4,18.5 293.4,18.5 293.4,18.5 	"/>
	<polygon class="st4" points="292.4,18.4 292.5,18.5 293.4,18.5 293.4,18.4 292.5,18.4 292.5,18.4 292.4,18.4 292.4,18.5 
		292.5,18.5 292.4,18.4 292.4,18.4 292.4,18.4 	"/>
	<polygon class="st4" points="292.5,18 292.5,18 292.5,18.1 292.5,18.2 292.5,18.3 292.4,18.4 292.5,18.4 292.5,18.3 292.5,18.2 
		292.5,18.1 292.5,18 292.5,18 292.5,18 292.5,18 292.5,18 	"/>
	<polygon class="st4" points="291.1,18.5 291.1,18.5 291.2,18.5 291.3,18.5 291.4,18.5 291.5,18.5 291.6,18.5 291.7,18.5 
		291.8,18.5 291.9,18.4 292,18.4 292.1,18.3 292.2,18.3 292.3,18.3 292.3,18.2 292.4,18.2 292.5,18.1 292.5,18 292.5,18 292.4,18.1 
		292.4,18.1 292.3,18.2 292.2,18.2 292.2,18.3 292.1,18.3 292,18.3 291.9,18.4 291.8,18.4 291.7,18.4 291.6,18.5 291.5,18.5 
		291.4,18.5 291.3,18.5 291.2,18.5 291.1,18.5 291.1,18.5 291.1,18.5 291.1,18.5 291.1,18.5 	"/>
	<polygon class="st4" points="290.3,17.4 290.3,17.4 290.3,17.5 290.3,17.6 290.3,17.7 290.3,17.7 290.3,17.8 290.3,17.9 290.4,18 
		290.4,18.1 290.5,18.1 290.5,18.2 290.6,18.3 290.7,18.3 290.8,18.4 290.9,18.4 291,18.5 291.1,18.5 291.1,18.5 291,18.4 
		290.9,18.4 290.8,18.3 290.7,18.3 290.6,18.2 290.6,18.2 290.5,18.1 290.5,18 290.4,18 290.4,17.9 290.4,17.8 290.3,17.7 
		290.3,17.7 290.3,17.6 290.3,17.5 290.3,17.4 290.3,17.4 290.3,17.4 290.3,17.4 290.3,17.4 	"/>
	<polygon class="st4" points="291.5,16.1 291.5,16.1 291.4,16.1 291.3,16.1 291.2,16.1 291.1,16.2 290.9,16.3 290.8,16.3 
		290.7,16.4 290.6,16.5 290.6,16.6 290.5,16.7 290.4,16.8 290.4,16.9 290.3,17 290.3,17.1 290.3,17.3 290.3,17.4 290.3,17.4 
		290.3,17.3 290.3,17.2 290.4,17 290.4,16.9 290.5,16.8 290.5,16.7 290.6,16.6 290.7,16.5 290.8,16.4 290.9,16.4 291,16.3 
		291.1,16.2 291.2,16.2 291.3,16.1 291.4,16.1 291.5,16.1 291.5,16.1 291.5,16.1 291.5,16.1 291.5,16.1 	"/>
	<polygon class="st4" points="292.3,16 292.3,16 292.2,16 292.2,16 292.1,16 292.1,16 292,16 292,16 291.9,16 291.8,16 291.8,16 
		291.7,16 291.7,16 291.6,16 291.6,16 291.6,16 291.5,16.1 291.5,16.1 291.5,16.1 291.5,16.1 291.6,16.1 291.6,16.1 291.6,16.1 
		291.7,16.1 291.7,16.1 291.8,16.1 291.8,16.1 291.9,16.1 292,16 292,16 292.1,16 292.1,16 292.2,16 292.2,16 292.3,16 292.3,16 
		292.3,16 292.3,16 292.3,16 	"/>
	<polygon class="st4" points="292.8,16 292.8,16 292.8,16 292.7,16 292.7,16 292.6,16 292.5,16 292.4,16 292.4,16 292.3,16 
		292.3,16 292.4,16 292.4,16 292.5,16 292.6,16 292.7,16 292.7,16 292.8,16 292.8,16 292.8,16 292.8,16 292.8,16 292.8,16 292.8,16 
		292.8,16 292.8,16 	"/>
	<polygon class="st4" points="292.8,15.8 292.8,15.8 292.8,15.9 292.8,15.9 292.8,16 292.8,16 292.8,16 292.8,16 292.8,15.9 
		292.8,15.9 292.8,15.8 292.8,15.8 292.8,15.8 292.8,15.8 292.8,15.8 	"/>
	<polygon class="st4" points="292.4,15.4 292.4,15.4 292.4,15.4 292.5,15.5 292.6,15.5 292.7,15.5 292.7,15.6 292.7,15.6 
		292.8,15.7 292.8,15.8 292.8,15.8 292.8,15.7 292.8,15.6 292.7,15.6 292.7,15.5 292.6,15.5 292.5,15.4 292.5,15.4 292.4,15.4 
		292.4,15.4 292.4,15.4 292.4,15.4 292.4,15.4 	"/>
	<polygon class="st4" points="290.8,15.6 290.9,15.6 290.9,15.6 290.9,15.6 291,15.6 291.1,15.5 291.2,15.5 291.3,15.5 291.4,15.5 
		291.5,15.5 291.6,15.5 291.7,15.4 291.8,15.4 291.9,15.4 292,15.4 292.2,15.4 292.3,15.4 292.4,15.4 292.4,15.4 292.3,15.4 
		292.2,15.4 292,15.4 291.9,15.4 291.8,15.4 291.7,15.4 291.6,15.4 291.5,15.4 291.4,15.4 291.3,15.5 291.2,15.5 291.1,15.5 
		291,15.5 290.9,15.5 290.9,15.6 290.8,15.6 290.9,15.6 290.8,15.6 290.8,15.6 290.8,15.6 	"/>
	<polygon class="st4" points="291.1,14.7 291.1,14.7 290.8,15.6 290.9,15.6 291.1,14.8 291.1,14.8 291.1,14.7 291.1,14.7 
		291.1,14.7 291.1,14.7 291.1,14.7 291.1,14.7 	"/>
	<polygon class="st4" points="292.7,14.6 292.7,14.6 292.6,14.6 292.4,14.6 292.3,14.6 292.2,14.6 292.1,14.6 292,14.6 291.9,14.6 
		291.8,14.6 291.7,14.6 291.6,14.6 291.5,14.6 291.4,14.6 291.3,14.6 291.3,14.7 291.2,14.7 291.1,14.7 291.1,14.8 291.2,14.7 
		291.3,14.7 291.3,14.7 291.4,14.7 291.5,14.7 291.6,14.6 291.7,14.6 291.8,14.6 291.9,14.6 292,14.6 292.1,14.6 292.2,14.6 
		292.3,14.6 292.4,14.6 292.6,14.6 292.7,14.6 292.7,14.6 292.7,14.6 292.7,14.6 292.7,14.6 	"/>
	<polygon class="st4" points="293.9,15.8 293.9,15.8 293.9,15.6 293.9,15.5 293.9,15.4 293.9,15.2 293.8,15.1 293.7,15 293.6,14.9 
		293.6,14.9 293.5,14.8 293.3,14.7 293.2,14.7 293.1,14.6 293,14.6 292.9,14.6 292.8,14.6 292.7,14.6 292.7,14.6 292.8,14.6 
		292.9,14.6 293,14.7 293.1,14.7 293.2,14.7 293.3,14.8 293.4,14.8 293.5,14.9 293.6,15 293.7,15.1 293.8,15.2 293.8,15.3 
		293.9,15.4 293.9,15.5 293.9,15.6 293.9,15.8 293.9,15.8 293.9,15.8 293.9,15.8 293.9,15.8 	"/>
	<polygon class="st4" points="293.5,17.7 293.5,17.7 293.9,15.8 293.9,15.8 293.5,17.6 293.5,17.6 293.5,17.7 293.5,17.7 
		293.5,17.7 	"/>
	<polygon class="st9" points="292.6,16.7 292.6,16.7 292.6,16.7 292.6,16.7 292.6,16.7 292.5,16.7 292.5,16.7 292.4,16.7 
		292.4,16.7 292.3,16.7 292.3,16.7 292.2,16.7 292.1,16.7 292.1,16.7 292,16.7 292,16.7 292,16.7 291.9,16.7 291.9,16.7 291.9,16.7 
		291.8,16.8 291.8,16.8 291.7,16.8 291.7,16.8 291.7,16.9 291.6,16.9 291.6,16.9 291.5,17 291.5,17 291.4,17.1 291.4,17.1 
		291.4,17.2 291.4,17.2 291.4,17.4 291.4,17.5 291.4,17.5 291.5,17.6 291.5,17.6 291.6,17.6 291.7,17.6 291.7,17.7 291.8,17.6 
		291.9,17.6 292,17.6 292.1,17.6 292.2,17.6 292.2,17.5 292.3,17.5 292.4,17.5 292.4,17.4 292.5,17.4 292.5,17.3 292.5,17.3 
		292.6,17.2 292.6,17.2 292.6,17.2 292.6,17.1 292.6,17 292.6,16.9 292.6,16.8 292.6,16.7 292.6,16.7 292.6,16.7 	"/>
	<polygon class="st4" points="300,18 300,17.9 300,17.8 300.1,17.7 300.1,17.6 300.2,17.6 300.3,17.5 300.4,17.5 300.5,17.5 
		300.6,17.5 300.7,17.5 300.8,17.6 300.8,17.6 300.9,17.7 301,17.8 301,17.9 301,18 300.9,18 300.9,17.9 300.9,17.8 300.8,17.7 
		300.8,17.7 300.7,17.6 300.7,17.6 300.6,17.6 300.5,17.6 300.4,17.6 300.3,17.6 300.3,17.6 300.2,17.7 300.2,17.7 300.1,17.8 
		300.1,17.9 300.1,18 300,18 300,18 300,18 	"/>
	<polygon class="st4" points="300.3,18 300.3,17.7 300.5,17.7 300.6,17.7 300.6,17.8 300.6,17.8 300.6,17.8 300.7,17.8 300.7,17.8 
		300.7,17.8 300.7,17.9 300.7,17.9 300.7,17.9 300.7,17.9 300.7,18 300.5,18 300.5,18 300.5,17.9 300.6,17.9 300.6,17.9 300.6,17.9 
		300.6,17.9 300.6,17.9 300.6,17.9 300.6,17.9 300.6,17.8 300.6,17.8 300.6,17.8 300.6,17.8 300.5,17.8 300.5,17.8 300.5,17.8 
		300.4,17.8 300.4,18 300.3,18 300.3,18 300.3,18 	"/>
	<polygon class="st4" points="300,18 300,18 300,18.1 300,18.2 300.1,18.3 300.1,18.3 300.2,18.4 300.3,18.4 300.4,18.5 300.5,18.5 
		300.6,18.5 300.7,18.4 300.8,18.4 300.8,18.3 300.9,18.3 301,18.2 301,18.1 301,18 301,18 300.9,18 300.9,18 300.9,18.1 
		300.9,18.1 300.8,18.2 300.8,18.3 300.7,18.3 300.7,18.4 300.6,18.4 300.5,18.4 300.4,18.4 300.3,18.4 300.3,18.3 300.2,18.3 
		300.2,18.2 300.1,18.1 300.1,18.1 300.1,18 300.1,18 300,18 300,18 300,18 	"/>
	<polygon class="st4" points="300.3,18 300.3,18.2 300.4,18.2 300.4,18 300.5,18 300.6,18.2 300.7,18.2 300.6,18 300.6,18 300.6,18 
		300.6,18 300.7,18 300.7,18 300.5,18 300.5,18 300.4,18 300.4,18 300.3,18 300.3,18 300.3,18 	"/>
	<path class="st11" d="M300.5,18.4L300.5,18.4L300.5,18.4l0.2,0l0.1,0l0.1-0.1l0-0.1l0-0.1l0-0.1l0-0.1l0,0l0-0.1l0-0.1l0-0.1l0-0.1
		l-0.1,0l-0.1,0l-0.1,0l-0.1,0l0,0l-0.1,0l-0.1,0l-0.1,0l-0.1,0l0,0.1l0,0.1l0,0.1l0,0.1l0,0l0,0.1l0,0.1l0,0.1l0,0.1l0.1,0.1l0.1,0
		L300.5,18.4L300.5,18.4 M300.5,18L300.5,18L300.5,18L300.5,18L300.5,18L300.5,18l0.1,0l0,0l0,0v0l0,0l0,0l0,0l0,0l0,0l0,0l0,0h0h0
		h-0.1L300.5,18L300.5,18 M300.4,18.2L300.4,18.2l-0.1-0.4h0.2l0,0l0,0l0,0l0,0l0,0l0,0l0,0l0,0l0,0l0,0l0,0l0,0l0,0l0,0l0,0l0,0
		l0,0h0l0.1,0.2h-0.1l-0.1-0.2h-0.1V18.2 M300,18L300,18l0-0.1l0-0.1l0-0.1l0.1-0.1l0.1-0.1l0.1,0l0.1,0l0.1,0l0,0l0.1,0l0.1,0
		l0.1,0l0.1,0.1l0.1,0.1l0.1,0.1l0,0.1l0,0.1l0,0l0,0.1l0,0.1l-0.1,0.1l-0.1,0.1l-0.1,0.1l-0.1,0l-0.1,0l-0.1,0l0,0l-0.1,0l-0.1,0
		l-0.1,0l-0.1-0.1l-0.1-0.1l0-0.1l0-0.1L300,18"/>
	<polygon class="st4" points="293.8,18.4 294.8,18.4 294.8,18.4 295.1,16.4 295.2,16.3 295.2,16.3 295.2,16.2 295.2,16.1 295.3,16 
		295.3,15.9 295.4,15.9 295.4,15.8 295.5,15.7 295.5,15.7 295.6,15.6 295.7,15.6 295.8,15.6 295.9,15.5 296.1,15.5 296.2,15.5 
		296.3,15.5 296.3,15.5 296.3,15.5 296.3,15.5 296.5,14.6 296.4,14.6 296.3,14.6 296.2,14.6 296.1,14.6 296,14.7 295.9,14.7 
		295.9,14.7 295.8,14.8 295.7,14.8 295.7,14.9 295.6,14.9 295.5,15 295.5,15.1 295.4,15.1 295.4,15.2 295.3,15.3 295.4,14.6 
		294.4,14.6 293.8,18.4 293.8,18.4 293.8,18.4 293.8,18.4 	"/>
	<polyline class="st11" points="293.8,18.4 294.8,18.4 294.8,18.4 295.1,16.4 295.1,16.4 295.2,16.3 295.2,16.3 295.2,16.2 
		295.2,16.1 295.3,16 295.3,15.9 295.4,15.9 295.4,15.8 295.5,15.7 295.5,15.7 295.6,15.6 295.7,15.6 295.8,15.6 295.9,15.5 
		296.1,15.5 296.2,15.5 296.2,15.5 296.3,15.5 296.3,15.5 296.3,15.5 296.3,15.5 296.5,14.6 296.5,14.6 296.4,14.6 296.3,14.6 
		296.2,14.6 296.1,14.6 296,14.7 295.9,14.7 295.9,14.7 295.8,14.8 295.7,14.8 295.7,14.9 295.6,14.9 295.5,15 295.5,15.1 
		295.4,15.1 295.4,15.2 295.3,15.3 295.4,14.6 294.4,14.6 293.8,18.4 293.8,18.4 	"/>
	<polygon class="st4" points="284.3,18.4 285.3,18.4 285.4,18.4 285.7,16.4 285.7,16.3 285.7,16.3 285.8,16.2 285.8,16.1 285.8,16 
		285.8,16 285.9,15.9 285.9,15.9 286,15.8 286.1,15.7 286.1,15.7 286.2,15.7 286.3,15.6 286.4,15.6 286.5,15.6 286.7,15.6 
		286.7,15.6 286.7,15.6 286.7,15.6 286.7,15.6 286.8,15.6 286.8,15.6 286.8,15.6 286.8,15.6 286.8,15.6 286.8,15.5 286.8,15.5 
		286.8,15.4 286.9,15.3 286.9,15.2 286.9,15.1 287,15 287,14.9 287,14.9 287.1,14.8 287.1,14.7 287.1,14.7 287.1,14.6 287.2,14.6 
		287.2,14.6 287.2,14.6 287.2,14.6 287.1,14.6 287.1,14.6 287.1,14.6 287.1,14.6 287,14.6 287,14.6 286.9,14.6 286.8,14.6 
		286.7,14.6 286.6,14.6 286.5,14.7 286.5,14.7 286.4,14.7 286.3,14.8 286.3,14.8 286.2,14.9 286.2,14.9 286.1,15 286.1,15.1 
		286,15.1 286,15.2 285.9,15.3 286,14.6 285,14.6 284.3,18.4 284.3,18.4 284.3,18.4 284.3,18.4 	"/>
	<polyline class="st11" points="284.3,18.4 285.3,18.4 285.4,18.4 285.7,16.4 285.7,16.4 285.7,16.3 285.7,16.3 285.8,16.2 
		285.8,16.1 285.8,16 285.8,16 285.9,15.9 285.9,15.9 286,15.8 286.1,15.7 286.1,15.7 286.2,15.7 286.3,15.6 286.4,15.6 286.5,15.6 
		286.7,15.6 286.7,15.6 286.7,15.6 286.7,15.6 286.7,15.6 286.7,15.6 286.8,15.6 286.8,15.6 286.8,15.6 286.8,15.6 286.8,15.6 
		286.8,15.6 286.8,15.5 286.8,15.5 286.8,15.4 286.9,15.3 286.9,15.2 286.9,15.1 287,15 287,15 287,14.9 287,14.9 287.1,14.8 
		287.1,14.7 287.1,14.7 287.1,14.6 287.2,14.6 287.2,14.6 287.2,14.6 287.2,14.6 287.2,14.6 287.1,14.6 287.1,14.6 287.1,14.6 
		287.1,14.6 287,14.6 287,14.6 287,14.6 286.9,14.6 286.8,14.6 286.7,14.6 286.6,14.6 286.5,14.7 286.5,14.7 286.4,14.7 286.3,14.8 
		286.3,14.8 286.2,14.9 286.2,14.9 286.1,15 286.1,15.1 286,15.1 286,15.2 285.9,15.3 286,14.6 285,14.6 284.3,18.4 284.3,18.4 	"/>
	<polygon class="st9" points="300,22.2 300,22.2 300,22.1 300.1,22 300.1,21.9 300.2,21.9 300.3,21.8 300.4,21.8 300.5,21.8 
		300.6,21.8 300.7,21.8 300.8,21.9 300.8,21.9 300.9,22 301,22.1 301,22.2 301,22.2 300.9,22.2 300.9,22.1 300.8,22.1 300.8,22 
		300.7,21.9 300.7,21.9 300.6,21.9 300.5,21.9 300.4,21.9 300.3,21.9 300.3,21.9 300.2,22 300.2,22.1 300.1,22.1 300.1,22.2 
		300,22.2 300,22.2 300,22.2 	"/>
	<polygon class="st9" points="300.3,22.2 300.3,22.1 300.5,22.1 300.6,22.1 300.6,22.1 300.6,22.1 300.6,22.1 300.7,22.1 
		300.7,22.1 300.7,22.2 300.7,22.2 300.6,22.2 300.6,22.2 300.6,22.2 300.6,22.1 300.6,22.1 300.6,22.1 300.6,22.1 300.5,22.1 
		300.5,22.1 300.5,22.1 300.4,22.1 300.4,22.2 300.3,22.2 300.3,22.2 300.3,22.2 	"/>
	<polygon class="st9" points="300,22.3 300,22.2 300.1,22.2 300.1,22.2 300.1,22.3 300,22.3 300,22.3 300,22.3 	"/>
	<polygon class="st9" points="300.3,22.3 300.3,22.2 300.4,22.2 300.4,22.3 300.5,22.3 300.5,22.3 300.5,22.3 300.6,22.2 
		300.6,22.2 300.6,22.2 300.6,22.2 300.6,22.2 300.6,22.2 300.7,22.2 300.7,22.2 300.7,22.2 300.7,22.2 300.7,22.3 300.7,22.3 
		300.3,22.3 300.3,22.3 300.3,22.3 	"/>
	<polygon class="st9" points="300.9,22.3 300.9,22.2 300.9,22.2 301,22.2 301,22.3 300.9,22.3 300.9,22.3 300.9,22.3 	"/>
	<polygon class="st9" points="300,22.3 300,22.3 300,22.4 300,22.5 300.1,22.6 300.1,22.6 300.2,22.7 300.3,22.7 300.4,22.8 
		300.5,22.8 300.6,22.8 300.7,22.7 300.8,22.7 300.8,22.6 300.9,22.6 301,22.5 301,22.4 301,22.3 301,22.3 300.9,22.3 300.9,22.3 
		300.9,22.4 300.9,22.4 300.8,22.5 300.8,22.6 300.7,22.6 300.7,22.7 300.6,22.7 300.5,22.7 300.4,22.7 300.3,22.7 300.3,22.6 
		300.2,22.6 300.2,22.5 300.1,22.4 300.1,22.4 300.1,22.3 300.1,22.3 300,22.3 300,22.3 300,22.3 	"/>
	<polygon class="st9" points="300.3,22.3 300.3,22.5 300.4,22.5 300.4,22.3 300.5,22.3 300.6,22.5 300.7,22.5 300.6,22.3 
		300.6,22.3 300.6,22.3 300.6,22.3 300.7,22.3 300.7,22.3 300.3,22.3 300.3,22.3 300.3,22.3 	"/>
</g>
<g>
	<g id="Lager_2_00000163049632619569945400000007266750377350366620_">
		<g id="Layer_1_00000146485906347817622820000014612367434338732451_">
			<path class="st12" d="M7.2,5.3h36.1c3.1,0,5.5,2.5,5.5,5.5v8c0,3.1-2.5,5.5-5.5,5.5H7.2c-3.1,0-5.5-2.5-5.5-5.5v-8
				C1.7,7.8,4.1,5.3,7.2,5.3z"/>
			<path class="st13" d="M39.4,13.7c-1.3-0.9-3.2-0.6-4.1,0.8c-0.9,1.3-0.6,3.2,0.8,4.1c1,0.7,2.3,0.7,3.3,0v0.4h1.7v-5.5h-1.7V13.7
				z M37.9,17.5c-0.8,0-1.4-0.7-1.3-1.5c0-0.8,0.7-1.4,1.5-1.3c0.8,0,1.4,0.7,1.4,1.4C39.4,16.9,38.7,17.5,37.9,17.5z"/>
			<rect x="15" y="10.9" class="st13" width="1.7" height="8"/>
			<path class="st13" d="M31.9,13.2c-0.7,0-1.3,0.3-1.7,0.8v-0.6h-1.7v5.5h1.7V16c0-0.6,0.4-1.2,1.1-1.3c0.1,0,0.1,0,0.2,0
				c0.7,0,1.1,0.4,1.1,1.2v2.9h1.7v-3.5C34.3,14.1,33.3,13.2,31.9,13.2z"/>
			<path class="st13" d="M21.9,13.7c-1.3-0.9-3.2-0.6-4.1,0.8c-0.9,1.3-0.6,3.2,0.8,4.1c1,0.7,2.3,0.7,3.3,0v0.4h1.7v-5.5h-1.7V13.7
				z M20.4,17.5c-0.8,0-1.4-0.7-1.3-1.5c0-0.8,0.7-1.4,1.5-1.3c0.8,0,1.4,0.7,1.4,1.4C21.9,16.9,21.2,17.5,20.4,17.5L20.4,17.5z"/>
			<path class="st13" d="M26.2,14v-0.7h-1.7v5.5h1.7v-2.6c0-0.9,0.9-1.3,1.6-1.3c0,0,0,0,0,0v-1.6C27.2,13.3,26.6,13.6,26.2,14z"/>
			<path class="st13" d="M42.9,16.9c-0.6,0-1,0.5-1,1c0,0.6,0.5,1,1,1c0.6,0,1-0.5,1-1C43.9,17.4,43.4,16.9,42.9,16.9
				C42.9,16.9,42.9,16.9,42.9,16.9z"/>
			<path class="st13" d="M13.8,10.9H12c0,1.5-0.7,2.8-1.9,3.7l-0.7,0.5l2.8,3.8h2.3l-2.5-3.5C13.1,14.2,13.8,12.6,13.8,10.9z"/>
			<rect x="7.4" y="10.9" class="st13" width="1.8" height="8"/>
		</g>
	</g>
</g>
<g>
</g>
<g>
</g>
<g>
</g>
<g>
</g>
<g>
</g>
<g>
</g>
</svg>
