<?xml version="1.0" encoding="utf-8"?>
<!-- Generator: Adobe Illustrator 27.3.1, SVG Export Plug-In . SVG Version: 6.00 Build 0)  -->
<svg version="1.1" id="Ebene_1" xmlns="http://www.w3.org/2000/svg" xmlns:xlink="http://www.w3.org/1999/xlink" x="0px" y="0px"
	 viewBox="0 0 226 78" style="enable-background:new 0 0 226 78;" xml:space="preserve">
<style type="text/css">
	.st0{clip-path:url(#SVGID_00000078007604723073021840000004406111555667892632_);}
	.st1{clip-path:url(#SVGID_00000092414113095891241270000003222191066300489117_);}
	.st2{display:none;clip-path:url(#SVGID_00000140703991969054547900000008669407572893054362_);fill:#FFFFFF;}
	.st3{clip-path:url(#SVGID_00000140703991969054547900000008669407572893054362_);fill:#487FAA;}
	
		.st4{clip-path:url(#SVGID_00000140703991969054547900000008669407572893054362_);fill-rule:evenodd;clip-rule:evenodd;fill:#AF4F21;}
	
		.st5{clip-path:url(#SVGID_00000140703991969054547900000008669407572893054362_);fill-rule:evenodd;clip-rule:evenodd;fill:#487FAA;}
	
		.st6{clip-path:url(#SVGID_00000140703991969054547900000008669407572893054362_);fill-rule:evenodd;clip-rule:evenodd;fill:#4C97B3;}
	
		.st7{clip-path:url(#SVGID_00000140703991969054547900000008669407572893054362_);fill-rule:evenodd;clip-rule:evenodd;fill:#FFFFFF;}
	.st8{clip-path:url(#SVGID_00000140703991969054547900000008669407572893054362_);fill:#AF4F21;}
	.st9{clip-path:url(#SVGID_00000140703991969054547900000008669407572893054362_);fill:#C3B3B2;}
	.st10{fill:#FFFFFF;}
	.st11{fill-rule:evenodd;clip-rule:evenodd;fill:#FFFFFF;}
	.st12{fill:#477FAA;}
	.st13{fill:#AD512E;}
	.st14{fill-rule:evenodd;clip-rule:evenodd;fill:#4C84AA;}
</style>
<g>
	<g>
		<defs>
			<rect id="SVGID_1_" x="32.7" y="5.2" transform="matrix(0.342 -0.9397 0.9397 0.342 6.7489 90.044)" width="70" height="70"/>
		</defs>
		<defs>
			<polyline id="SVGID_00000149380929764694991910000008205016310134582962_" points="46.8,-4.6 113,19.5 88.9,85.7 22.7,61.6 
				46.8,-4.6 			"/>
		</defs>
		<defs>
			<polygon id="SVGID_00000144323461657798373000000010492566002212671918_" points="46.8,-4.6 22.8,61.1 88.6,85 112.5,19.3 
				46.8,-4.6 			"/>
		</defs>
		<clipPath id="SVGID_00000046301574413395095780000015004290238394962608_">
			<use xlink:href="#SVGID_1_"  style="overflow:visible;"/>
		</clipPath>
		
			<clipPath id="SVGID_00000170974084241495750740000015394246321182534049_" style="clip-path:url(#SVGID_00000046301574413395095780000015004290238394962608_);">
			<use xlink:href="#SVGID_00000149380929764694991910000008205016310134582962_"  style="overflow:visible;"/>
		</clipPath>
		
			<clipPath id="SVGID_00000160174330391708876020000000332012184830470847_" style="clip-path:url(#SVGID_00000170974084241495750740000015394246321182534049_);">
			<use xlink:href="#SVGID_00000144323461657798373000000010492566002212671918_"  style="overflow:visible;"/>
		</clipPath>
		<path style="display:none;clip-path:url(#SVGID_00000160174330391708876020000000332012184830470847_);fill:#FFFFFF;" d="
			M99.7,51.9c-6.4,17.7-26,26.8-43.7,20.4s-26.8-26-20.4-43.7s26-26.8,43.7-20.4S106.1,34.2,99.7,51.9"/>
		<path style="clip-path:url(#SVGID_00000160174330391708876020000000332012184830470847_);fill:#487FAA;" d="M99.7,51.9l-0.8-0.3
			c-3.1,8.6-9.5,15.1-17.2,18.7c-7.7,3.6-16.8,4.2-25.4,1.1c-8.6-3.1-15.1-9.5-18.7-17.2c-3.6-7.7-4.2-16.8-1.1-25.4
			c3.1-8.6,9.5-15.1,17.2-18.7C61.3,6.5,70.4,5.9,79,9c8.6,3.1,15.1,9.5,18.7,17.2c3.6,7.7,4.2,16.8,1.1,25.4L99.7,51.9l0.8,0.3
			c6.6-18.2-2.8-38.2-20.9-44.8c-18.2-6.6-38.2,2.8-44.8,20.9c-6.6,18.2,2.8,38.2,20.9,44.8c18.2,6.6,38.2-2.8,44.8-20.9L99.7,51.9
			L99.7,51.9z"/>
		<path style="display:none;clip-path:url(#SVGID_00000160174330391708876020000000332012184830470847_);fill:#FFFFFF;" d="M97.4,51
			c-6,16.4-24.1,24.8-40.5,18.9C40.5,63.9,32,45.8,38,29.4C44,13,62.1,4.6,78.5,10.5C94.9,16.5,103.3,34.6,97.4,51"/>
		<path style="clip-path:url(#SVGID_00000160174330391708876020000000332012184830470847_);fill:#487FAA;" d="M97.4,51l-0.4-0.2
			c-2.9,8.1-8.9,14.2-16.1,17.6c-7.2,3.4-15.7,4-23.8,1c-8.1-2.9-14.2-8.9-17.6-16.1c-3.4-7.2-4-15.7-1-23.8
			c2.9-8.1,8.9-14.2,16.1-17.6c7.2-3.4,15.7-4,23.8-1c8.1,2.9,14.2,8.9,17.6,16.1c3.4,7.2,4,15.7,1,23.8L97.4,51l0.4,0.2
			c6.1-16.6-2.5-35-19.1-41.1C62,4,43.6,12.6,37.6,29.2c-6.1,16.6,2.5,35,19.1,41.1c16.6,6.1,35-2.5,41.1-19.1L97.4,51L97.4,51z"/>
		<path style="display:none;clip-path:url(#SVGID_00000160174330391708876020000000332012184830470847_);fill:#FFFFFF;" d="M86.4,47
			C82.7,57.4,71.2,62.7,60.8,59c-10.4-3.8-15.7-15.2-11.9-25.6C52.7,23,64.1,17.7,74.5,21.4C84.9,25.2,90.2,36.7,86.4,47L86.4,47z"
			/>
		<path style="clip-path:url(#SVGID_00000160174330391708876020000000332012184830470847_);fill:#487FAA;" d="M86.4,47l-0.3-0.1
			C84.3,52,80.6,55.9,76,58c-4.6,2.1-9.9,2.5-15.1,0.7c-5.1-1.9-9-5.6-11.1-10.2c-2.1-4.6-2.5-9.9-0.7-15.1c1.9-5.1,5.6-9,10.2-11.1
			c4.6-2.1,9.9-2.5,15.1-0.7c5.1,1.9,9,5.6,11.1,10.2c2.1,4.6,2.5,9.9,0.7,15.1L86.4,47l0.3,0.1c3.8-10.5-1.6-22.1-12.1-26
			c-10.5-3.8-22.1,1.6-26,12.1c-3.8,10.5,1.6,22.1,12.1,26c10.5,3.8,22.1-1.6,26-12.1L86.4,47L86.4,47z"/>
		
			<path style="clip-path:url(#SVGID_00000160174330391708876020000000332012184830470847_);fill-rule:evenodd;clip-rule:evenodd;fill:#AF4F21;" d="
			M63.1,39.4c0,0,0-0.1,0.1-0.1l0-0.1c0.1-0.2,0.1-0.4,0-0.6c-0.1-0.2-0.2-0.3-0.5-0.4c-0.2-0.1-0.5-0.1-0.7,0
			c-0.2,0.1-0.5,0.3-0.6,0.6L63.1,39.4L63.1,39.4z M63.9,40.6l-3.1-1.1c-0.1,0.3-0.1,0.6,0.1,0.8c0.1,0.2,0.4,0.4,0.7,0.5
			c0.2,0.1,0.5,0.1,0.8,0.2c0.3,0,0.5,0,0.8,0l-0.5,1c-0.3,0-0.6,0-0.8-0.1c-0.3-0.1-0.6-0.1-0.8-0.2c-0.7-0.2-1.1-0.6-1.4-1.1
			c-0.2-0.5-0.3-1.1,0-1.7c0.1-0.3,0.3-0.7,0.6-0.9c0.3-0.3,0.5-0.5,0.9-0.6c0.3-0.1,0.6-0.2,1-0.2c0.4,0,0.7,0.1,1.1,0.2
			c0.6,0.2,1,0.5,1.2,1c0.2,0.4,0.2,0.9,0,1.5c0,0.1-0.1,0.2-0.2,0.4C64.1,40.4,64,40.5,63.9,40.6L63.9,40.6z M60.5,36.5l-0.8,1.1
			c-0.1-0.1-0.2-0.2-0.3-0.2c-0.1-0.1-0.2-0.1-0.3-0.1c-0.3-0.1-0.6-0.1-0.8,0c-0.3,0.1-0.5,0.4-0.8,0.9l-1.1,1.7l-1.5-0.5l2.4-4
			l1.3,0.5l-0.4,0.7c0.3-0.2,0.6-0.4,0.9-0.4c0.3-0.1,0.5,0,0.8,0.1c0.1,0,0.2,0.1,0.3,0.1C60.3,36.4,60.4,36.5,60.5,36.5L60.5,36.5
			z M53,32.1l1.7,0.6c0.8,0.3,1.4,0.6,1.6,1c0.3,0.4,0.3,0.9,0.1,1.4c-0.2,0.7-0.6,1.1-1.2,1.3c-0.6,0.2-1.2,0.2-2-0.1
			c-0.1,0-0.2-0.1-0.3-0.1c-0.1-0.1-0.3-0.1-0.5-0.2L51.2,38l-1.5-0.6L53,32.1L53,32.1z M53.9,33.7l-0.9,1.4l0.4,0.1
			c0.4,0.1,0.7,0.2,0.9,0.1c0.3-0.1,0.4-0.3,0.5-0.5c0.1-0.2,0.1-0.4,0-0.6c-0.1-0.2-0.3-0.3-0.6-0.4L53.9,33.7L53.9,33.7z"/>
		
			<path style="clip-path:url(#SVGID_00000160174330391708876020000000332012184830470847_);fill-rule:evenodd;clip-rule:evenodd;fill:#487FAA;" d="
			M82.2,44.6l-0.7,0.8c-0.2-0.2-0.4-0.3-0.6-0.4c-0.2-0.1-0.3-0.2-0.5-0.2c-0.2-0.1-0.4-0.1-0.5-0.1c-0.1,0-0.2,0.1-0.3,0.2
			c-0.1,0.2,0.1,0.4,0.4,0.6c0.1,0.1,0.2,0.2,0.3,0.3c0.3,0.2,0.4,0.5,0.5,0.7c0.1,0.2,0.1,0.4,0,0.7c-0.2,0.5-0.5,0.8-1,0.9
			c-0.5,0.2-1,0.1-1.6-0.1c-0.3-0.1-0.6-0.2-0.8-0.4c-0.3-0.1-0.5-0.3-0.7-0.5l0.7-0.9c0.2,0.2,0.3,0.3,0.5,0.4
			c0.2,0.1,0.4,0.2,0.6,0.3C78.7,47,78.9,47,79,47c0.2,0,0.3-0.1,0.3-0.2c0.1-0.2,0-0.4-0.3-0.6c0,0-0.1-0.1-0.1-0.1
			c-0.4-0.3-0.6-0.6-0.7-0.8c-0.1-0.2-0.1-0.5,0-0.8c0.1-0.4,0.5-0.7,0.9-0.8c0.5-0.1,1-0.1,1.6,0.1c0.2,0.1,0.5,0.2,0.7,0.3
			C81.7,44.2,81.9,44.4,82.2,44.6L82.2,44.6z M77.5,40.7l1.5,0.5l-0.6,1l-1.4-0.5L77.5,40.7L77.5,40.7z M76.5,42.4l1.4,0.5l-2.5,3.9
			l-1.4-0.5L76.5,42.4L76.5,42.4z M72,38.5l1.5,0.5L72,41.3c0.3-0.1,0.6-0.2,0.8-0.2c0.3,0,0.5,0,0.8,0.1c0.4,0.2,0.7,0.4,0.9,0.8
			c0.1,0.3,0.1,0.8,0,1.2c-0.1,0.1-0.1,0.3-0.2,0.5c-0.1,0.2-0.2,0.4-0.4,0.6l-1,1.6l-1.5-0.5l1.2-2c0-0.1,0.1-0.1,0.1-0.2
			c0-0.1,0.1-0.1,0.1-0.2c0.1-0.2,0.1-0.4,0-0.5c-0.1-0.1-0.2-0.2-0.3-0.3c-0.3-0.1-0.6-0.1-0.9,0.1c-0.3,0.2-0.6,0.5-0.8,0.9
			l-1,1.7l-1.5-0.5L72,38.5L72,38.5z M66.6,37.1l4.4,1.6l-0.6,1l-1.5-0.5l-2.7,4.3l-1.5-0.6l2.7-4.3L66,38.1L66.6,37.1L66.6,37.1z"
			/>
		
			<path style="clip-path:url(#SVGID_00000160174330391708876020000000332012184830470847_);fill-rule:evenodd;clip-rule:evenodd;fill:#4C97B3;" d="
			M84.3,43c0.2,0.1,0.3,0.2,0.3,0.3c-0.1,0.2-0.2,0.2-0.4,0.1l-0.2-0.1l0.2-0.4L84.3,43L84.3,43z M84.4,42.9l-0.5-0.2L83.4,44
			l0.2,0.1l0.2-0.6l0.2,0.1l0.1,0.7l0.3,0.1l-0.1-0.7c0.2,0,0.4-0.1,0.4-0.2C84.9,43.2,84.8,43,84.4,42.9L84.4,42.9z M85.1,43.9
			c-0.1,0.3-0.3,0.5-0.5,0.6c-0.3,0.1-0.6,0.1-0.8,0c-0.3-0.1-0.5-0.3-0.6-0.6c-0.1-0.3-0.1-0.5,0-0.8c0.1-0.3,0.3-0.5,0.6-0.6
			c0.2-0.1,0.5-0.1,0.8,0c0.3,0.1,0.5,0.3,0.6,0.6C85.2,43.4,85.2,43.7,85.1,43.9L85.1,43.9z M84.5,42.4c-0.3-0.1-0.6-0.1-0.9,0
			c-0.3,0.1-0.5,0.4-0.6,0.7c-0.1,0.3-0.1,0.6,0,0.9c0.1,0.3,0.4,0.5,0.7,0.6c0.3,0.1,0.6,0.1,0.9,0c0.3-0.1,0.5-0.4,0.6-0.7
			c0.1-0.3,0.1-0.6,0-0.9C85.1,42.7,84.9,42.5,84.5,42.4L84.5,42.4z"/>
		
			<polygon style="clip-path:url(#SVGID_00000160174330391708876020000000332012184830470847_);fill-rule:evenodd;clip-rule:evenodd;fill:#FFFFFF;" points="
			71.5,38.1 73.9,38.9 73.7,39.7 71.3,38.8 71.5,38.1 		"/>
		<polygon style="clip-path:url(#SVGID_00000160174330391708876020000000332012184830470847_);fill:#AF4F21;" points="47.5,49 
			40.4,51.9 40,51 47.1,48.1 47.5,49 		"/>
		<path style="clip-path:url(#SVGID_00000160174330391708876020000000332012184830470847_);fill:#AF4F21;" d="M42.6,53.8
			c0,0.5,0.2,1.2,0.5,1.8c0.6,0.9,1.3,1.1,2,0.6c0.6-0.4,0.7-1,0.5-2c-0.3-1.3-0.2-2.3,0.7-2.9c1-0.6,2.3-0.3,3.1,1
			c0.4,0.7,0.6,1.2,0.6,1.6l-0.8,0.2c0-0.3-0.1-0.8-0.5-1.4c-0.6-0.9-1.3-0.9-1.7-0.6c-0.6,0.4-0.6,1-0.4,2.1
			c0.3,1.4,0.1,2.2-0.8,2.9c-1,0.6-2.3,0.5-3.3-1.1c-0.4-0.6-0.6-1.4-0.6-1.9L42.6,53.8L42.6,53.8z"/>
		<path style="clip-path:url(#SVGID_00000160174330391708876020000000332012184830470847_);fill:#AF4F21;" d="M49.1,58.3
			c-1.1,1.3-1.3,3-0.1,4c1.2,1,2.8,0.5,3.9-0.9c1-1.2,1.4-2.9,0.1-4C51.8,56.4,50.2,57,49.1,58.3L49.1,58.3z M53.7,62.1
			c-1.7,2-3.8,2.1-5.3,0.8c-1.6-1.3-1.6-3.4-0.1-5.2c1.6-1.9,3.8-2.1,5.3-0.8C55.2,58.2,55.2,60.3,53.7,62.1L53.7,62.1z"/>
		<path style="clip-path:url(#SVGID_00000160174330391708876020000000332012184830470847_);fill:#AF4F21;" d="M59,63.2
			c-0.3,0.9,0.1,1.7,0.9,1.9c0.6,0.2,1.2,0,1.6-0.3c0.1-0.1,0.1-0.2,0.2-0.3c0.4-1.2,0.2-2.3-0.8-2.6C60.1,61.7,59.3,62.2,59,63.2
			L59,63.2z M57.4,67.2c0.2,0.1,0.4,0.1,0.8,0.2c0.6,0.1,1.2,0,1.7-0.3c0.6-0.3,1.1-0.8,1.5-1.6l0,0c-0.5,0.4-1.2,0.5-1.9,0.3
			c-1.3-0.4-1.8-1.6-1.5-2.8c0.4-1.3,1.7-2.2,3.2-1.8c1.5,0.4,2,1.9,1.5,3.7c-0.5,1.5-1.3,2.5-2.2,3c-0.7,0.4-1.6,0.5-2.4,0.3
			c-0.4,0-0.7-0.1-0.9-0.2L57.4,67.2L57.4,67.2z"/>
		<path style="clip-path:url(#SVGID_00000160174330391708876020000000332012184830470847_);fill:#AF4F21;" d="M65.1,65.9
			c-0.1,1.9,0.5,3,1.4,3.1c1,0,1.5-1.2,1.6-3c0-1.8-0.4-3-1.4-3.1C65.8,62.8,65.1,63.9,65.1,65.9L65.1,65.9z M69.1,65.9
			c-0.1,2.5-1.1,3.9-2.7,3.8c-1.4,0-2.4-1.4-2.4-3.9c0.1-2.5,1.2-3.8,2.7-3.8C68.3,62.1,69.2,63.5,69.1,65.9L69.1,65.9z"/>
		<path style="clip-path:url(#SVGID_00000160174330391708876020000000332012184830470847_);fill:#AF4F21;" d="M71.7,65.6
			c0.5,1.9,1.3,2.8,2.2,2.6c1-0.2,1.2-1.5,0.7-3.4c-0.4-1.8-1.1-2.8-2.2-2.6C71.6,62.4,71.3,63.6,71.7,65.6L71.7,65.6z M75.6,64.5
			c0.6,2.4,0,4-1.6,4.4c-1.4,0.3-2.7-0.7-3.3-3.1c-0.6-2.4,0.2-4,1.6-4.3C73.9,61.1,75.1,62.2,75.6,64.5L75.6,64.5z"/>
		<polygon style="clip-path:url(#SVGID_00000160174330391708876020000000332012184830470847_);fill:#AF4F21;" points="77.8,60.5 
			77.8,60.5 77,61.8 76.4,61.2 77.4,59.6 78.2,59.2 81.7,65.7 80.9,66.2 77.8,60.5 		"/>
		<polygon style="clip-path:url(#SVGID_00000160174330391708876020000000332012184830470847_);fill:#AF4F21;" points="44,21.2 
			46.3,23.4 48.9,20.7 46.5,18.5 47.2,17.8 52.8,23 52.1,23.8 49.5,21.3 47,24 49.6,26.5 48.9,27.2 43.3,22 44,21.2 		"/>
		<path style="clip-path:url(#SVGID_00000160174330391708876020000000332012184830470847_);fill:#AF4F21;" d="M56.1,17.4l-1.7-1.6
			c-0.4-0.4-0.7-0.7-1-1.1l0,0c0.1,0.4,0.2,0.9,0.3,1.4l0.4,2.3L56.1,17.4L56.1,17.4z M54.3,19.2l0.4,2.5l-0.9,0.5l-1.3-8l1-0.6
			l5.9,5.5l-0.9,0.5L56.7,18L54.3,19.2L54.3,19.2z"/>
		<path style="clip-path:url(#SVGID_00000160174330391708876020000000332012184830470847_);fill:#AF4F21;" d="M65.8,17.7
			c-0.3,0.3-1,0.6-1.9,0.7c-2.1,0.4-4-0.6-4.5-3.1c-0.5-2.4,0.8-4.3,3.2-4.7c0.9-0.2,1.6-0.1,1.9,0l-0.1,0.8c-0.4-0.1-0.9-0.1-1.6,0
			c-1.8,0.3-2.7,1.7-2.4,3.7c0.4,1.9,1.6,2.8,3.5,2.5c0.6-0.1,1.2-0.4,1.5-0.6L65.8,17.7L65.8,17.7z"/>
		<path style="clip-path:url(#SVGID_00000160174330391708876020000000332012184830470847_);fill:#AF4F21;" d="M72.4,18.2
			c-0.4,0.1-1.1,0.3-2.1,0.2c-2.2-0.2-3.6-1.7-3.4-4.3c0.2-2.4,2-3.9,4.4-3.6c0.9,0.1,1.5,0.4,1.8,0.5l-0.3,0.8
			c-0.3-0.2-0.9-0.4-1.5-0.5c-1.8-0.2-3.1,0.8-3.3,2.9c-0.2,1.9,0.8,3.2,2.6,3.4c0.6,0.1,1.2,0,1.7-0.2L72.4,18.2L72.4,18.2z"/>
		<path style="clip-path:url(#SVGID_00000160174330391708876020000000332012184830470847_);fill:#AF4F21;" d="M76.1,15.7
			c0.2,0.1,0.4,0.3,0.7,0.4c1.1,0.4,2,0.2,2.4-0.8c0.4-0.9-0.1-1.7-1.1-2.1c-0.4-0.2-0.7-0.3-0.9-0.3L76.1,15.7L76.1,15.7z
			 M76.5,11.9c0.5,0.1,1.1,0.3,1.8,0.6c0.9,0.4,1.5,0.9,1.7,1.4c0.2,0.5,0.3,1.1,0,1.7c-0.3,0.6-0.7,1.1-1.2,1.3
			c-0.7,0.3-1.6,0.3-2.5-0.1c-0.3-0.1-0.5-0.2-0.7-0.4l-1.2,2.8l-0.9-0.4L76.5,11.9L76.5,11.9z"/>
		<path style="clip-path:url(#SVGID_00000160174330391708876020000000332012184830470847_);fill:#AF4F21;" d="M85.3,26.6
			c-0.4-0.1-1-0.5-1.7-1.2c-1.5-1.5-1.7-3.6,0.1-5.4c1.7-1.7,4-1.7,5.7,0c0.7,0.7,1,1.3,1,1.5l-0.7,0.4c-0.1-0.4-0.4-0.9-0.9-1.3
			c-1.3-1.3-2.9-1.3-4.4,0.1c-1.3,1.3-1.4,2.9-0.1,4.3c0.4,0.4,1,0.8,1.4,0.9L85.3,26.6L85.3,26.6z"/>
		<polygon style="clip-path:url(#SVGID_00000160174330391708876020000000332012184830470847_);fill:#AF4F21;" points="91,29.7 
			89.5,27.1 87.1,28.4 88.7,31.3 88,31.7 85.9,27.9 92.6,24.2 94.6,27.8 93.9,28.2 92.4,25.5 90.2,26.7 91.7,29.3 91,29.7 		"/>
		<path style="clip-path:url(#SVGID_00000160174330391708876020000000332012184830470847_);fill:#AF4F21;" d="M92.7,33l0.2,1
			c0.3,1,1,1.5,1.8,1.3c1-0.2,1.2-1,1-2c-0.1-0.5-0.2-0.8-0.3-0.9L92.7,33L92.7,33z M95.8,31.2c0.2,0.5,0.4,1.2,0.6,1.8
			c0.3,1,0.2,1.8-0.1,2.3c-0.2,0.4-0.7,0.8-1.3,0.9c-1,0.2-1.8-0.2-2.2-0.9l0,0c-0.1,0.6-0.5,1.1-1.2,1.5c-1,0.5-1.7,0.8-1.9,1.1
			l-0.2-1c0.2-0.2,0.8-0.5,1.7-0.9c1-0.5,1.3-1,1.1-1.9l-0.2-0.9L88.7,34l-0.2-1L95.8,31.2L95.8,31.2z"/>
		<polygon style="clip-path:url(#SVGID_00000160174330391708876020000000332012184830470847_);fill:#AF4F21;" points="96.5,41 
			96.5,38.7 97.4,38.7 97.2,44.4 96.3,44.3 96.4,42 89.6,41.8 89.6,40.8 96.5,41 		"/>
		<path style="clip-path:url(#SVGID_00000160174330391708876020000000332012184830470847_);fill:#C3B3B2;" d="M41.6,38.7
			c-0.7-0.3-1.1-1-0.8-1.7c0.3-0.7,1-1.1,1.7-0.8c0.7,0.3,1.1,1,0.8,1.7C43.1,38.6,42.3,38.9,41.6,38.7"/>
		<path style="clip-path:url(#SVGID_00000160174330391708876020000000332012184830470847_);fill:#C3B3B2;" d="M88.6,55.8
			c-0.7-0.3-1.1-1-0.8-1.7s1-1.1,1.7-0.8c0.7,0.3,1.1,1,0.8,1.7C90.1,55.7,89.3,56,88.6,55.8"/>
	</g>
</g>
<g>
	<circle class="st10" cx="162.2" cy="40.1" r="34.2"/>
	<circle class="st10" cx="162.5" cy="40.2" r="34.2"/>
	<path class="st11" d="M162.5,6.4c18.6,0,33.7,15.1,33.7,33.7c0,18.6-15.1,33.8-33.7,33.8c-18.6,0-33.8-15.1-33.8-33.8
		C128.7,21.5,143.8,6.4,162.5,6.4"/>
	<path class="st12" d="M188.6,62l-0.7-0.6c-5.9,7-14.1,11-22.5,11.7c-8.5,0.7-17.2-1.7-24.2-7.6c-7-5.9-11-14.1-11.7-22.5
		c-0.7-8.5,1.7-17.2,7.6-24.2c5.9-7,14.1-11,22.5-11.7c8.5-0.7,17.2,1.7,24.2,7.6c7,5.9,11,14.1,11.7,22.5
		c0.7,8.5-1.7,17.2-7.6,24.2L188.6,62l0.7,0.6c12.4-14.8,10.5-36.9-4.3-49.3c-14.8-12.4-36.9-10.5-49.3,4.3l0,0
		c-12.4,14.8-10.5,36.9,4.3,49.3l0,0c14.8,12.4,36.9,10.5,49.3-4.3"/>
	<path class="st12" d="M186.2,60l-0.3-0.3c-5.4,6.5-13,10.1-20.7,10.8c-7.8,0.7-15.8-1.6-22.3-7c-6.5-5.4-10.1-12.9-10.8-20.7
		c-0.7-7.8,1.6-15.8,7-22.3c5.4-6.5,13-10.1,20.7-10.8c7.8-0.7,15.8,1.6,22.3,7c6.5,5.4,10.1,12.9,10.8,20.7
		c0.7,7.8-1.6,15.8-7,22.3L186.2,60l0.3,0.3C197.7,47,196,27.2,182.7,16c-13.3-11.2-33.1-9.4-44.3,3.9c-11.2,13.3-9.4,33.1,3.9,44.3
		c13.3,11.2,33.1,9.4,44.3-3.9"/>
	<path class="st12" d="M177.8,52.9l-0.2-0.2c-3.5,4.2-8.3,6.5-13.4,7c-5,0.4-10.2-1-14.4-4.5c-4.2-3.5-6.5-8.3-7-13.4
		c-0.4-5,1-10.2,4.5-14.4c3.5-4.2,8.3-6.5,13.4-7c5-0.4,10.2,1,14.4,4.5c4.2,3.5,6.5,8.4,7,13.4c0.4,5-1,10.2-4.5,14.4L177.8,52.9
		l0.2,0.2c7.2-8.6,6.1-21.4-2.5-28.6c-8.6-7.2-21.4-6.1-28.6,2.5c-7.2,8.6-6.1,21.4,2.5,28.6c8.6,7.2,21.4,6.1,28.6-2.5"/>
	<g>
		<path class="st13" d="M147.5,16.4l2.7-1.5l0.3,0.9l-1.4,0.8l0.6,1l1.2-0.7l0.5,0.8l-1.2,0.7l0.9,1.7l-1.2,0.6L147.5,16.4z"/>
		<path class="st13" d="M154.1,16.7l-0.3,0.1l0.6,1.7l-1.3,0.4l-1.6-4.7l1.6-0.6c1.3-0.5,2.1-0.2,2.5,0.8c0.2,0.6,0.1,1.1-0.4,1.6
			l1.9,1.6l-1.4,0.5L154.1,16.7z M153.5,16l0.4-0.1c0.4-0.1,0.6-0.4,0.4-0.9c-0.1-0.4-0.4-0.5-0.9-0.3l-0.4,0.1L153.5,16z"/>
		<path class="st13" d="M159.9,13.2l-1.7,0.2l0.2,1l1.5-0.2l0.1,0.9l-1.5,0.2l0.2,1.1l1.8-0.3l0.1,0.9l-3.1,0.5l-0.7-4.9l3.1-0.5
			L159.9,13.2z"/>
		<path class="st13" d="M164.4,13.2l-1.7,0l0,1.1l1.5,0l0,0.9l-1.5,0l0,1.1l1.8,0l0,0.9l-3.1-0.1l0.1-5l3.2,0.1L164.4,13.2z"/>
		<path class="st13" d="M172,16.4c-0.5,1.5-1.6,2.3-3,1.8c-1.4-0.4-1.9-1.6-1.4-3.2c0.5-1.5,1.6-2.3,2.9-1.8S172.5,14.9,172,16.4z
			 M168.9,15.5c-0.4,1.2-0.2,1.7,0.4,1.9c0.6,0.2,1-0.2,1.3-1.3c0.4-1.2,0.2-1.7-0.4-1.9C169.7,14,169.3,14.4,168.9,15.5z"/>
		<path class="st13" d="M174.2,14.8l2.7,1.4l-0.6,0.8l-1.4-0.7l-0.6,1.1l1.2,0.7l-0.4,0.8l-1.2-0.7l-0.9,1.7l-1.2-0.6L174.2,14.8z"
			/>
		<path class="st13" d="M179,22.9l-1-0.9l-0.9,0.6l-1-0.9l4.4-2.7l1.2,1.1l-2.3,4.7l-1-0.9L179,22.9z M179.5,22l1.1-1.8l-1.7,1.2
			L179.5,22z"/>
		<path class="st13" d="M184.2,26.8c-1.6,1.2-2.7,0.5-3.5-0.6l-0.9-1.3l4-2.9l0.9,1.2C185.5,24.4,185.9,25.6,184.2,26.8z
			 M183.8,23.7l-2.5,1.8l0.2,0.3c0.4,0.5,0.9,0.7,1.9-0.1c1-0.7,1-1.2,0.6-1.8L183.8,23.7z"/>
		<path class="st13" d="M186.5,31.6c-1.8,0.8-2.8-0.1-3.3-1.3l-0.7-1.5l4.5-2l0.6,1.4C188.2,29.5,188.3,30.8,186.5,31.6z
			 M186.7,28.5l-2.8,1.3l0.1,0.3c0.3,0.6,0.7,0.8,1.9,0.3c1.1-0.5,1.2-1,1-1.6L186.7,28.5z"/>
		<path class="st13" d="M184.7,34.7l-0.3-1.3l4.8-1.3l0.3,1.3L184.7,34.7z"/>
		<path class="st13" d="M189.3,38.5l-0.2-1.2l-3.9,0.5l-0.2-1.3L189,36l-0.2-1.2l1-0.1l0.5,3.9L189.3,38.5z"/>
		<path class="st13" d="M185.3,41l0-1.3l5,0.1l0,1.3L185.3,41z"/>
		<path class="st13" d="M184.9,44.5l0.3-1.7l5.1-0.6l-0.2,1.4l-4.1,0.2l3.8,1.4l-0.2,1.3L184.9,44.5z"/>
		<path class="st13" d="M187.4,50.3l0.6-1.6l-1-0.3l-0.5,1.4l-0.9-0.3l0.5-1.4l-1.1-0.4l-0.6,1.7l-0.9-0.3l1-3l4.7,1.6l-1,3
			L187.4,50.3z"/>
		<path class="st13" d="M185.5,55l-0.3-0.9c0.4-0.2,0.7-0.4,0.9-0.7c0.2-0.3,0.2-0.6-0.1-0.7c-0.3-0.1-0.4,0-1,0.5
			c-0.7,0.7-1.4,0.9-2.1,0.5c-0.8-0.5-1-1.4-0.4-2.6c0.4-0.8,1-1.2,1.6-1.3l0.3,0.9c-0.4,0.2-0.8,0.4-1,0.8
			c-0.2,0.4-0.2,0.7,0.1,0.9c0.3,0.2,0.5,0.1,1-0.4c0.9-0.8,1.5-0.9,2.1-0.6c0.8,0.4,0.9,1.4,0.4,2.3C186.5,54.4,186,54.8,185.5,55z
			"/>
		<path class="st13" d="M182.1,55.7c-0.3-0.2-0.4-0.7-0.1-1s0.7-0.4,1-0.1c0.3,0.2,0.4,0.7,0.1,1S182.4,55.9,182.1,55.7z"/>
		<path class="st13" d="M176.4,58.4l1.3-1.2l2.9,2.3l-2.1-3.1l1.2-1.2l4,3.1l-1,0.9l-3-2.6L182,60l-1,1l-3.1-2.5l2.4,3.3l-0.9,0.9
			L176.4,58.4z"/>
		<path class="st13" d="M174.2,59.8l1.1-0.7l2.7,4.2l-1.1,0.7L174.2,59.8z"/>
		<path class="st13" d="M171.9,65.3l1.1-0.5l-1.7-3.6l1.2-0.6l1.7,3.6l1.1-0.5l0.4,0.9l-3.5,1.6L171.9,65.3z"/>
		<path class="st13" d="M167.6,64.6l1.3-0.3l-0.5-2l1.3-0.3l1.2,4.8l-1.3,0.3l-0.4-1.8l-1.3,0.3l0.4,1.8l-1.3,0.3l-1.2-4.8l1.3-0.3
			L167.6,64.6z"/>
		<path class="st13" d="M161.7,64.1l-1.9-0.1l0.2-1l3.1,0.1l-0.2,5l-1.3,0L161.7,64.1z"/>
		<path class="st13" d="M154.7,64.5c0.3-1.6,1.4-2.4,2.8-2.1c1.4,0.3,2,1.4,1.7,3c-0.3,1.6-1.4,2.4-2.8,2.1
			C155,67.2,154.4,66.1,154.7,64.5z M157.8,65.2c0.3-1.2,0.1-1.7-0.5-1.8c-0.6-0.1-1,0.3-1.2,1.4c-0.3,1.2-0.1,1.7,0.5,1.8
			C157.2,66.7,157.6,66.3,157.8,65.2z"/>
		<path class="st13" d="M152.3,60.8l1.5,0.7l-0.7,5.1l-1.3-0.6l0.8-4l-2.3,3.3l-1.2-0.5L152.3,60.8z"/>
		<path class="st13" d="M146,61.6l1.4,1l0.6-0.9l-1.2-0.8l0.5-0.8l1.2,0.8l0.6-0.9l-1.5-1l0.5-0.8l2.6,1.8l-2.8,4.1l-2.6-1.8
			L146,61.6z"/>
		<path class="st13" d="M141.4,57l0.8,0.9l2.9-2.7l0.9,1l-2.9,2.7l0.8,0.9l-0.7,0.7l-2.6-2.9L141.4,57z"/>
		<path class="st13" d="M139.7,51.9c1.4-0.9,2.7-0.7,3.4,0.5c0.8,1.2,0.4,2.4-1,3.3c-1.4,0.9-2.6,0.7-3.4-0.5
			C138,54,138.3,52.8,139.7,51.9z M141.4,54.6c1-0.6,1.2-1.2,0.9-1.7c-0.3-0.5-0.9-0.5-1.9,0.1s-1.2,1.1-0.9,1.7
			C139.9,55.2,140.4,55.2,141.4,54.6z"/>
		<path class="st13" d="M139.3,46.6l0.4,1.3l1-0.1l0.4,1.3l-5.2,0.1l-0.5-1.5l4.3-2.9l0.4,1.3L139.3,46.6z M138.5,47.1l-1.8,1
			l2.1-0.2L138.5,47.1z"/>
		<path class="st13" d="M139.4,40.4l0.2,1.7l-3.6,1.6c0.5-0.1,1.1-0.3,2-0.4l1.7-0.2l0.1,1.2l-5,0.5l-0.2-1.6l3.6-1.7
			c-0.5,0.1-1.1,0.3-1.9,0.4l-1.8,0.2l-0.1-1.2L139.4,40.4z"/>
		<path class="st13" d="M139.5,38.2l-0.1,1.3l-5-0.3l0.1-1.3L139.5,38.2z"/>
		<path class="st13" d="M140.6,32.3l-0.3,1.3l-1.8-0.4c-0.7-0.1-1.3-0.3-2-0.5l3.1,1.4l-0.3,1.2l-3.4-0.1c0.8,0.1,1.3,0.2,2,0.4
			l1.8,0.5l-0.3,1.3l-4.8-1.5l0.4-1.6l3.4,0.1l-3.1-1.3l0.4-1.6L140.6,32.3z"/>
		<path class="st13" d="M141.1,29.1l-0.6,1.2l0.8,0.6l-0.6,1.2l-3.8-3.5l0.7-1.4l5.1,0.8l-0.6,1.3L141.1,29.1z M140.1,28.9l-2.1-0.5
			l1.7,1.3L140.1,28.9z"/>
		<path class="st13" d="M142.9,26.1l1.1-1.5l0.7,0.7l-1.8,2.5l-4-2.9l0.8-1.1L142.9,26.1z"/>
		<path class="st13" d="M144.7,19.1l0.1,0.9c-0.4,0-0.8,0.2-1.1,0.5c-0.3,0.3-0.3,0.5-0.1,0.7c0.2,0.2,0.4,0.1,1.1-0.2
			c0.9-0.5,1.6-0.5,2.2,0.2c0.7,0.7,0.6,1.7-0.4,2.6c-0.7,0.6-1.3,0.8-1.9,0.8l0-1c0.5,0,0.9-0.2,1.2-0.5c0.3-0.3,0.4-0.6,0.1-0.9
			c-0.2-0.2-0.5-0.2-1.1,0.1c-1.1,0.5-1.7,0.5-2.2-0.1c-0.6-0.7-0.5-1.6,0.3-2.4C143.5,19.4,144,19.1,144.7,19.1z"/>
	</g>
	<g>
		<path class="st14" d="M167,53.7l-0.1,0v0H166v0l-2.4-0.4c-1.6-0.3-2.8-0.4-3.6-0.5c-0.8-0.1-1.7-0.1-2.6-0.2c-0.9,0-1.5-0.1-2-0.2
			c-0.4-0.1-0.8-0.2-1.2-0.3s-0.7-0.3-1-0.4c-0.3-0.2-0.5-0.3-0.8-0.6c-0.3-0.2-0.5-0.5-0.7-0.7c-0.2-0.3-0.3-0.5-0.4-0.8
			c-0.1-0.3-0.2-0.5-0.3-0.8c-0.1-0.3-0.1-0.5-0.1-0.7c0-0.2,0-0.5,0-0.7c0-0.2,0.1-0.5,0.2-0.9s0.2-0.7,0.3-0.9
			c0.1-0.2,0.2-0.4,0.5-0.6c0.2-0.2,0.4-0.3,0.4-0.4c0.1-0.1,0.3-0.2,0.7-0.5c0.4-0.3,0.7-0.5,0.9-0.6s0.5-0.3,0.7-0.4
			c0.3-0.1,0.5-0.2,0.7-0.4s0.4-0.3,0.6-0.4c0.2-0.2,0.3-0.3,0.4-0.3c0.1-0.1,0.1-0.1,0.2-0.2c0.1-0.1,0.1-0.1,0.1-0.1
			c0,0,0-0.1,0.1-0.1c0.1-0.1,0.1-0.1,0.2-0.2c0.1-0.1,0.4-0.4,0.9-1c0.5-0.6,0.8-0.9,0.8-0.9c0,0,0,0,0.1-0.1c0,0,0.1-0.1,0.3-0.3
			c0.2-0.2,0.3-0.4,0.5-0.5c0.2-0.2,0.4-0.3,0.6-0.5s0.5-0.3,0.7-0.4c0.2-0.1,0.4-0.1,0.6-0.2c0.1,0,0.3,0,0.6,0
			c0.3,0,0.5,0.1,0.8,0.2c0.3,0.1,0.5,0.2,0.7,0.3c0.2,0.1,0.4,0.3,0.6,0.5c0.2,0.2,0.3,0.3,0.5,0.5c0.1,0.1,0.3,0.5,0.7,1.1
			c0.3,0.6,0.7,1.2,1.1,1.9c0.4,0.6,0.8,1.2,1.2,1.7c0.4,0.5,0.6,0.8,0.8,1c0.2,0.2,0.3,0.3,0.3,0.4c0.1,0.1,0.1,0.1,0.1,0.1
			c0,0,0.1,0.1,0.1,0.1c0.1,0.1,0.1,0.1,0.2,0.2c0.1,0.1,0.2,0.2,0.4,0.4c0.2,0.2,0.4,0.4,0.6,0.7c0.2,0.3,0.4,0.6,0.5,0.9
			c0.1,0.2,0.2,0.5,0.4,0.9c0.1,0.3,0.2,0.6,0.2,0.8s0,0.5,0,0.8s0,0.6-0.1,0.8s-0.2,0.5-0.3,0.8c-0.1,0.3-0.2,0.4-0.2,0.5
			c0,0-0.1,0.1-0.1,0.2c-0.1,0.1-0.2,0.2-0.4,0.4c-0.2,0.2-0.4,0.3-0.7,0.5c-0.3,0.2-0.6,0.3-0.9,0.4c-0.3,0.1-0.6,0.2-0.9,0.2
			S167.1,53.6,167,53.7z"/>
		<path class="st14" d="M158,26.2l0.4-0.1h0.6v0l0.1,0l0.1,0l0,0c0,0,0.1,0,0.3,0.1c0.2,0.1,0.3,0.2,0.5,0.3
			c0.2,0.1,0.3,0.3,0.5,0.5c0.2,0.2,0.4,0.4,0.5,0.7c0.2,0.3,0.3,0.5,0.4,0.8c0.1,0.3,0.2,0.6,0.3,0.9c0.1,0.3,0.2,0.6,0.2,1
			c0.1,0.3,0.1,0.8,0.1,1.4c0,0.6,0,0.9,0,1.1s-0.1,0.5-0.2,0.9c-0.1,0.4-0.2,0.7-0.3,1s-0.3,0.5-0.4,0.7s-0.3,0.4-0.4,0.5
			c-0.1,0.1-0.2,0.2-0.2,0.2c0,0-0.1,0.1-0.3,0.2c-0.2,0.1-0.4,0.2-0.5,0.2c-0.2,0.1-0.3,0.1-0.5,0.1c-0.2,0-0.4,0-0.4,0
			c-0.1,0-0.2-0.1-0.4-0.1s-0.4-0.2-0.6-0.3c-0.2-0.2-0.4-0.3-0.4-0.3c0,0,0-0.1-0.1-0.1c-0.1-0.1-0.1-0.1-0.1-0.1
			c0,0-0.1-0.2-0.3-0.5s-0.3-0.6-0.5-0.9s-0.3-0.7-0.4-1.1c-0.1-0.4-0.2-0.8-0.2-1.3c0-0.5-0.1-0.9,0-1.3c0-0.4,0.1-0.8,0.1-1.2
			c0.1-0.3,0.1-0.6,0.2-0.9c0.1-0.3,0.2-0.5,0.3-0.8c0.1-0.3,0.3-0.5,0.4-0.7c0.1-0.2,0.3-0.4,0.5-0.6
			C157.6,26.4,157.8,26.3,158,26.2z"/>
		<path class="st14" d="M168.5,27.1c0.3,0,0.6,0,0.7,0.1s0.4,0.1,0.5,0.3c0.2,0.1,0.3,0.3,0.5,0.4c0.1,0.2,0.3,0.4,0.4,0.6
			c0.1,0.2,0.2,0.5,0.2,0.7c0.1,0.2,0.1,0.6,0.1,1.1s0,0.9,0,1.1s-0.1,0.6-0.3,1c-0.1,0.4-0.3,0.9-0.5,1.3s-0.4,0.7-0.5,1
			s-0.4,0.5-0.6,0.8s-0.5,0.5-0.7,0.7c-0.2,0.2-0.5,0.4-0.7,0.5c-0.3,0.1-0.5,0.3-0.7,0.3c-0.2,0.1-0.5,0.1-0.8,0.1
			c-0.3,0-0.5,0-0.7-0.1s-0.3-0.1-0.5-0.2s-0.3-0.2-0.4-0.4c-0.1-0.2-0.3-0.4-0.4-0.6c-0.1-0.2-0.2-0.5-0.3-0.8
			c-0.1-0.3-0.1-0.7-0.1-1.2c0-0.5,0-0.9,0.1-1.3c0.1-0.4,0.2-0.8,0.3-1.2c0.1-0.3,0.3-0.7,0.5-1s0.4-0.7,0.7-1.1
			c0.3-0.4,0.4-0.6,0.4-0.6c0,0,0,0,0.1-0.1c0,0,0.1-0.1,0.1-0.1c0,0,0.1,0,0.1-0.1c0.1-0.1,0.1-0.1,0.1-0.1c0,0,0.1-0.1,0.2-0.2
			c0.1-0.1,0.3-0.2,0.6-0.4c0.3-0.2,0.5-0.3,0.8-0.4C168,27.1,168.2,27.1,168.5,27.1L168.5,27.1z"/>
		<path class="st14" d="M148.2,35.2l0-0.2h0v-1.1h0l0.1-0.5c0-0.3,0.1-0.6,0.2-0.8c0.1-0.3,0.2-0.5,0.3-0.7c0.1-0.2,0.3-0.3,0.4-0.5
			c0.1-0.1,0.2-0.2,0.4-0.3c0.2-0.1,0.3-0.2,0.5-0.2s0.4-0.1,0.6-0.1c0.3,0,0.5,0.1,0.7,0.1s0.5,0.2,0.7,0.3
			c0.2,0.1,0.5,0.3,0.7,0.5s0.3,0.3,0.3,0.3c0,0,0,0,0,0s0.1,0.1,0.3,0.4c0.2,0.3,0.4,0.6,0.6,0.9s0.4,0.7,0.6,1.1
			c0.2,0.4,0.3,0.8,0.4,1.2c0.1,0.4,0.2,0.7,0.2,1s0,0.6,0,1s0,0.8-0.1,1.1c-0.1,0.3-0.1,0.6-0.2,0.8c-0.1,0.2-0.2,0.4-0.4,0.6
			c-0.1,0.2-0.3,0.3-0.4,0.5c-0.1,0.1-0.3,0.2-0.5,0.3c-0.2,0.1-0.5,0.1-0.8,0.1c-0.3,0-0.6,0-0.8-0.1c-0.2-0.1-0.5-0.2-0.7-0.3
			c-0.2-0.1-0.5-0.3-0.7-0.6c-0.2-0.2-0.5-0.5-0.7-0.7c-0.2-0.3-0.4-0.5-0.6-0.8s-0.3-0.6-0.5-1c-0.2-0.4-0.3-0.8-0.4-1.1
			c-0.1-0.4-0.2-0.6-0.2-0.8S148.2,35.3,148.2,35.2z"/>
		<path class="st14" d="M177,35.7l0.1,0.4l0,0.1l0,0.1h0v0.7h0l0,0.1l0,0.1l0,0.1c0,0.1,0,0.1,0,0.2s-0.1,0.3-0.1,0.6
			c-0.1,0.3-0.2,0.7-0.3,1c-0.1,0.3-0.3,0.6-0.5,0.9c-0.2,0.3-0.4,0.6-0.6,0.9c-0.2,0.3-0.4,0.5-0.5,0.6c-0.1,0.1-0.1,0.1-0.1,0.1
			c0,0,0,0-0.1,0.1c0,0-0.1,0.1-0.1,0.1c0,0-0.1,0.1-0.2,0.2c-0.1,0.1-0.3,0.3-0.6,0.5c-0.3,0.2-0.5,0.4-0.8,0.5
			c-0.3,0.1-0.5,0.2-0.8,0.3c-0.3,0.1-0.5,0.1-0.8,0.1c-0.3,0-0.5,0-0.7-0.1s-0.4-0.1-0.5-0.3c-0.2-0.1-0.3-0.2-0.4-0.3
			c-0.1-0.1-0.2-0.3-0.3-0.5c-0.1-0.2-0.2-0.4-0.2-0.7c-0.1-0.2-0.1-0.5-0.1-0.9c0-0.4,0-0.7,0-0.9c0-0.2,0.1-0.4,0.2-0.8
			c0.1-0.4,0.2-0.7,0.4-1.1c0.2-0.4,0.3-0.7,0.5-1s0.4-0.6,0.6-0.9s0.4-0.5,0.5-0.5c0.1-0.1,0.1-0.1,0.2-0.2
			c0.1-0.1,0.1-0.1,0.2-0.2c0.1-0.1,0.2-0.2,0.4-0.3c0.2-0.2,0.5-0.3,0.7-0.5c0.2-0.1,0.5-0.3,0.8-0.3c0.3-0.1,0.6-0.1,0.9-0.2
			c0.3,0,0.6,0,0.7,0.1s0.4,0.1,0.5,0.2c0.2,0.1,0.3,0.2,0.4,0.4c0.1,0.1,0.2,0.3,0.3,0.5C176.9,35.2,177,35.4,177,35.7L177,35.7z"
			/>
	</g>
</g>
</svg>
