<?xml version="1.0" encoding="utf-8"?>
<svg version="1.1" id="Ebene_1" xmlns="http://www.w3.org/2000/svg" xmlns:xlink="http://www.w3.org/1999/xlink" x="0px" y="0px"
	 viewBox="0 0 226 78" style="enable-background:new 0 0 226 78;" xml:space="preserve">
<style type="text/css">
	.st0{fill:#FFFFFF;}
	.st1{fill:#94C77C;}
	.st2{clip-path:url(#SVGID_00000065755307230511236110000014157017890959596977_);}
	.st3{clip-path:url(#SVGID_00000095297599873041196800000007905894211417222317_);}
	.st4{display:none;clip-path:url(#SVGID_00000011714233599085295120000017428345555206956197_);fill:#FFFFFF;}
	.st5{clip-path:url(#SVGID_00000011714233599085295120000017428345555206956197_);fill:#487FAA;}
	
		.st6{clip-path:url(#SVGID_00000011714233599085295120000017428345555206956197_);fill-rule:evenodd;clip-rule:evenodd;fill:#AF4F21;}
	
		.st7{clip-path:url(#SVGID_00000011714233599085295120000017428345555206956197_);fill-rule:evenodd;clip-rule:evenodd;fill:#487FAA;}
	
		.st8{clip-path:url(#SVGID_00000011714233599085295120000017428345555206956197_);fill-rule:evenodd;clip-rule:evenodd;fill:#4C97B3;}
	
		.st9{clip-path:url(#SVGID_00000011714233599085295120000017428345555206956197_);fill-rule:evenodd;clip-rule:evenodd;fill:#FFFFFF;}
	.st10{clip-path:url(#SVGID_00000011714233599085295120000017428345555206956197_);fill:#AF4F21;}
	.st11{clip-path:url(#SVGID_00000011714233599085295120000017428345555206956197_);fill:#C3B3B2;}
	.st12{fill-rule:evenodd;clip-rule:evenodd;fill:#FFFFFF;}
	.st13{fill:#477FAA;}
	.st14{fill:#AD512E;}
	.st15{fill-rule:evenodd;clip-rule:evenodd;fill:#4C84AA;}
</style>
<g>
	<circle class="st0" cx="113.4" cy="38.7" r="31.8"/>
	<path class="st1" d="M108.3,4.3h1.2c0.7,0,1.9,0.7,3.8,2.1c1.4-1.4,2.7-2.1,3.8-2.1h0.6c1.3,0,2.8,1,4.4,3.1c1.9-0.5,3-0.8,3.3-0.8
		h0.8c1.5,0,2.8,1.5,4,4.6l1.1-0.2h1.9c2.6,0,4,1.9,4,5.8h0.2c3.5,0.4,5.2,1.7,5.2,3.9v0.2c0,0.7-0.1,1.7-0.2,3.1
		c2.8,0.8,4.2,2.4,4.2,4.6v0.2c0,0.5-0.4,1.7-1.2,3.5c1.9,1.5,2.9,2.7,2.9,3.7v1c0,1.1-0.8,2.4-2.3,3.9c1.3,2.1,1.9,3.5,1.9,4.1
		c0,1.6-1.3,3.2-3.8,4.8c0.6,1.3,0.8,2.5,0.8,3.5c0,1.8-1.7,3.3-5,4.4l0.2,0.4v1c0,3.2-1.7,4.8-5.2,4.8h-1c0,2.7-1.3,4.5-3.8,5.1
		h-0.6c-0.9,0-2-0.2-3.1-0.6c-1.1,2.2-2.2,3.5-3.5,3.9h-1.5c-0.9,0-2.1-0.5-3.6-1.4c-1.5,1.8-3.2,2.7-5,2.7c-0.8,0-2.1-0.9-4-2.7
		c-1.7,0.9-2.8,1.4-3.3,1.4h-1.3c-1.4,0-2.7-1.3-4-3.9c-0.8,0.4-2.2,0.6-4,0.6c-2.3-0.7-3.5-2.5-3.5-5.1h-1.1
		c-3.5,0-5.2-1.4-5.2-4.2v-2c0-0.2-1.1-0.7-3.4-1.5c-0.9-1-1.4-2-1.4-2.9v-0.2c0.3-1.7,0.4-3,0.4-3.7c-2.2-1.2-3.3-2.7-3.3-4.4
		c0-0.9,0.6-2.3,1.9-4.1c-1.5-1.4-2.3-2.8-2.5-4.1c0-1.6,1-3.1,3.1-4.6c-0.8-1.6-1.3-2.8-1.3-3.5v-1c0-1.4,1.4-2.6,4.2-3.7l-0.2-2
		v-1.5c0.4-2.5,2.1-3.7,5.2-3.7h0.2c0.3-3.8,1.5-5.8,3.6-5.8h2.3l1,0.2c0.9-3,2.3-4.6,4.2-4.6h0.8c2.1,0.6,3.2,0.8,3.4,0.8
		C105.7,5.5,107,4.4,108.3,4.3z M108.8,8.7c-0.7,0.8-1.7,2.2-3.1,4.3c-2.6-1.4-4.2-2-4.8-2h-0.2c-1,3.3-1.6,4.9-1.9,4.9
		c-3-0.5-4.7-0.8-5-0.8c-0.3,0.7-0.4,1.9-0.4,3.7v1.4c0,0.3-0.1,0.4-0.4,0.4h-0.4c-2.3,0-3.8,0.2-4.6,0.6l1,5.4h-0.2
		c-3,0.9-4.5,1.6-4.6,2.3c0.6,1.3,1.4,2.7,2.5,4.3c-2.1,1.6-3.4,2.7-4.2,3.1v0.4c0,0.1,1.2,1.4,3.5,3.9L83,44.9
		c0.9,0.8,2.5,1.7,4.6,2.9c-1.1,2.9-1.7,4.6-1.7,5.1c2,0.6,3.7,1,5.2,1.3c-0.3,1.7-0.4,3.2-0.4,4.4v1l1.1,0.2
		c2.4-0.1,3.8-0.2,4.2-0.2l1.2,5.4c3.1-1,4.9-1.5,5.2-1.5h0.2c1.1,3,1.9,4.6,2.5,4.6c1.2-0.7,2.6-1.6,4.2-2.7h0.2
		c1.4,1.7,2.7,3.1,3.8,3.9l3.5-3.9h0.2c2.4,1.8,4,2.7,4.6,2.7c1.4-2.7,2.1-4.3,2.1-4.6h0.2c3,0.8,4.7,1.3,5.2,1.3
		c0.3-0.7,0.6-2.4,1-5l0.4-0.2c1.9,0.1,3.1,0.2,3.5,0.2l1.5-0.2v-0.2c0-1.6-0.1-3.2-0.4-5c0.5-0.2,2.2-0.7,5.2-1.5
		c0-0.5-0.6-2.1-1.7-4.9v-0.2c2.1-1.2,3.5-2.1,4.4-2.9c-0.8-1.4-1.8-2.8-2.9-4.1v-0.2l3.6-3.7c-0.5-0.7-1.9-1.9-4.2-3.5
		c1.6-2.5,2.4-4,2.5-4.8c-3.2-1.3-4.9-2.1-5-2.3c0.3-0.5,0.7-2.1,1.3-4.9c-1.3-0.4-2.9-0.6-4.8-0.6h-0.2c-0.3,0-0.4-0.1-0.4-0.4
		v-0.6c0-1.9-0.1-3.4-0.4-4.6c-0.4,0-2.1,0.3-5.2,0.8c-0.3-0.6-0.8-2.2-1.7-4.9h-0.2c-0.5,0-2.1,0.7-5,2c-0.9-1.7-2-3.2-3.1-4.3
		c-0.2,0-1.5,1.1-4,3.3h-0.2C110.9,10,109.5,8.9,108.8,8.7z M109.3,11.6h0.2c1.3,0.8,2.4,1.7,3.3,2.9h0.2c2.1-1.9,3.4-2.9,4-2.9
		c0.4,0.4,1.4,1.7,2.9,3.9c1.7-1.2,3.2-1.8,4.4-1.8c1,2.2,1.5,3.6,1.5,4.4c2.2-0.4,3.8-0.6,4.8-0.6c0.3,0.5,0.4,1.3,0.4,2.3v2.7h0.2
		c3.1,0,4.6,0.3,4.6,0.8c-0.4,2.8-0.6,4.3-0.6,4.6c2.1,0.7,3.4,1.3,4,1.8c0,1-0.7,2.5-2.1,4.4c0.7,0.2,2,1.2,3.8,3.1
		c0,0.5-1.1,1.6-3.3,3.3c1.8,2,2.7,3.4,2.7,4.2c-0.6,0.7-1.9,1.5-4,2.5c1,1.9,1.5,3.3,1.5,4.1v0.2c-0.2,0.7-1.8,1.2-4.6,1.5
		c0.3,0.7,0.4,2,0.4,3.7v0.8c0,0.3-0.6,0.5-1.9,0.6l-1-0.2h-2.1v0.4c-0.2,2.7-0.7,4.1-1.5,4.1c-0.5,0-1.8-0.3-4.2-1
		c-1,2.6-1.8,3.9-2.5,3.9c-0.6,0-1.9-0.8-4-2.3c-1.4,2.2-2.6,3.3-3.6,3.3c-1.9-1.7-2.9-2.8-2.9-3.3c-2.1,1.5-3.5,2.3-4.2,2.3h-0.2
		c-1.2-1.5-1.9-2.8-2.1-4.1c-1.8,0.8-3.3,1.2-4.5,1.2c-0.4,0-0.8-1.2-1.1-3.7v-0.8h-1.7c-0.3,0-0.6,0.1-0.8,0.2
		c-1.7-0.1-2.5-0.3-2.5-0.6v-1c0-0.7,0.1-1.9,0.2-3.5c-0.7,0-2.1-0.3-4.3-1v-0.2c0-1.4,0.5-2.9,1.4-4.6c-1.8-0.6-3.1-1.6-4.2-2.7
		l2.7-3.9c-2.1-1.6-3.1-2.9-3.1-3.7c0.5-0.5,1.7-1.4,3.5-2.7C87.7,31.5,87,30,87,29.6c2.1-1.2,3.6-1.8,4.4-1.8
		c-0.6-1.8-0.8-3.3-0.8-4.4v-0.2c0-0.5,1.3-0.8,4-0.8h0.4l0.4-0.2c0-0.2-0.1-0.4-0.2-0.6c0.1-2.7,0.4-4.1,0.8-4.1
		c2.1,0.3,3.6,0.4,4.6,0.4c0.6-2.7,1.2-4.1,1.9-4.1c0.7,0,2,0.6,4.2,1.8C106.7,14.6,107.7,13.3,109.3,11.6z M92.2,33.7
		c1.2,6.5,1.9,10,1.9,10.3H96l2.1-10.3h-1.9c-0.6,2.8-0.8,4.7-0.8,5.6h-0.4c-0.4-3.7-0.7-5.6-1.1-5.6H92.2z M101.1,33.7v9.9
		c0.1,0.3,0.2,0.4,0.4,0.4h3.6c0.3,0,0.4-0.1,0.4-0.4v-1h-1.9c-0.3,0-0.4-0.1-0.4-0.4v-2.5c0-0.3,0.2-0.4,0.4-0.4h1v-1.3h-1
		c-0.3,0-0.4-0.1-0.4-0.4v-2.1c0-0.3,0.8-0.5,2.3-0.6v-1.2H101.1z M102.8,23.8c0.6,0.2,0.8,0.4,0.8,0.6v5.4h1v-7.3h-0.6
		C103.2,23.1,102.8,23.5,102.8,23.8z M105.7,24.4v3.7c0.2,1.2,0.8,1.8,1.9,1.8c0.8,0,1.4-0.7,1.9-2.1l-0.2-0.4v-3.3
		c0-1.1-0.6-1.7-1.7-1.7h-0.2C106.3,22.5,105.7,23.2,105.7,24.4z M107.4,23.4h0.4c0.4,0,0.6,0.8,0.6,2.3v1.6c0,1.1-0.3,1.7-0.8,1.9
		h-0.2c-0.2,0-0.4-0.2-0.6-0.6V24C106.8,23.8,107,23.6,107.4,23.4z M112.6,47.6v0.2l0.2,1.5c0,1-0.5,1.9-1.4,2.7
		c-1.4-1.5-2.6-2.5-3.8-2.9v0.2c0.3,1.1,0.4,2,0.4,2.7c-0.3,1.2-0.4,2.1-0.4,2.7v0.6c0,2.3,1.9,4.1,5.6,5.4v-0.2
		c0-1.1,0.8-2,2.3-2.5c2.2-1.6,3.3-3.4,3.3-5.2l-0.8-3.9h-0.2c0,0.8-0.6,1.7-1.9,2.7C115.1,50,114,48.6,112.6,47.6z M108.5,37.5v2.9
		c0,2.6,0.8,3.9,2.5,3.9c0.6,0,1.2-0.3,1.9-0.8c0,0.2,0.2,0.4,0.6,0.6h1v-5.4h-3.1v1.5c0.8,0,1.2,0.1,1.2,0.4c0,0.2-0.1,0.2-0.2,0.2
		c0,0.1,0.1,0.2,0.2,0.2c-0.2,1.1-0.4,1.6-0.8,1.6h-0.6c-0.4-0.1-0.6-0.5-0.6-1.2v-5c0.1-0.8,0.3-1.2,0.6-1.2h0.8
		c0.3,0,0.5,0.8,0.6,2.3h1.9v-0.2c0-2.5-1-3.7-2.9-3.7h-0.2C109.4,33.5,108.5,34.8,108.5,37.5z M109.3,51.1c0.8,0.8,1.2,1.5,1.2,2.1
		c-0.3,0.4-0.6,1.3-0.8,2.7c0.2,0.3,0.3,0.9,0.4,1.9h-0.2c-1-0.8-1.5-1.8-1.5-2.9l0.6-3.3c-0.2,0-0.2-0.1-0.2-0.2L109.3,51.1z
		 M110.3,24.2v4.1c0.1,1.1,0.7,1.6,1.7,1.6c1.3-0.2,1.9-0.8,1.9-1.8v-3.7c0-1.3-0.6-1.9-1.7-1.9h-0.8
		C110.7,22.9,110.3,23.5,110.3,24.2z M113.6,50.1h0.4c0.6,1.1,0.8,1.7,0.8,2c-2.3,1.3-3.5,3-3.5,5.2c0.1,0.3,0.2,0.5,0.2,0.6h-0.4
		c-0.3-1-0.4-1.8-0.4-2.5v-0.2c0-0.6,1-2.2,2.9-4.8V50.1z M111.8,23.4h0.4c0.2,0,0.4,0.2,0.6,0.6v4.6c0,0.2-0.2,0.4-0.6,0.6H112
		c-0.6-0.2-0.8-0.7-0.8-1.5V24C111.1,23.8,111.4,23.6,111.8,23.4z M117.4,51.5h0.4v1.2c0,2-1.5,3.8-4.4,5.2c0,0.1-0.3,0.2-0.8,0.2
		c-0.1-0.2-0.2-0.5-0.2-0.8v-0.2C112.4,55.2,114.1,53.3,117.4,51.5z M114.7,25.2v0.8c0.1,1.1,0.6,1.6,1.5,1.6c0.8,0,1.3-0.7,1.4-2.1
		v-0.2c0-1.1-0.5-1.6-1.4-1.6h-0.6C115,24,114.7,24.5,114.7,25.2z M116.2,24.4c0.3,0,0.5,0.5,0.6,1.5c-0.2,0.7-0.4,1-0.6,1
		c-0.2,0-0.4-0.2-0.6-0.6v-1.2C115.5,24.8,115.8,24.6,116.2,24.4z M118.5,23.8V24c0,0.6-0.4,2.6-1.1,5.8h0.6c0.2,0,0.7-2,1.5-6
		H118.5z M119.7,33.7c-0.1,1.3-0.8,4.7-2.1,10.1l0.4,0.2h1.3c0.3,0,0.5-0.8,0.8-2.3h1c0.2,0,0.5,0.8,0.8,2.3h1.9
		c-1.4-6.3-2.1-9.7-2.1-10.3H119.7z M119.3,27.5v0.6c0,1.1,0.5,1.6,1.4,1.6h0.6c0.6-0.2,0.8-0.8,0.8-1.9c0-1.4-0.5-2-1.5-2
		C119.9,25.9,119.4,26.4,119.3,27.5z M120.7,26.7c0.4,0.1,0.6,0.5,0.6,1.2c0,0.7-0.2,1.1-0.6,1.3c-0.2,0-0.4-0.2-0.6-0.6v-1.3
		C120.1,27.1,120.3,26.9,120.7,26.7z M120.5,37.2h0.4l0.2,3.3h-0.8v-0.2C120.3,40,120.4,39,120.5,37.2z M127,33.7v9.9
		c0.1,0.3,0.2,0.4,0.4,0.4h1.3v-5.2h0.2c0.2,0,0.9,1.7,2.1,5l0.4,0.2h1V33.7h-1.7v4.8h-0.4c-1-3.2-1.7-4.8-2.1-4.8H127z"/>
</g>
<g>
	<g>
		<defs>
			
				<rect id="SVGID_1_" x="2.8" y="4" transform="matrix(0.342 -0.9397 0.9397 0.342 -11.6653 60.6824)" width="69.4" height="69.4"/>
		</defs>
		<defs>
			<polyline id="SVGID_00000152253276709092122650000004003977451817015683_" points="16.8,-5.8 82.5,18.1 58.5,83.8 -7.2,59.9 
				16.8,-5.8 			"/>
		</defs>
		<defs>
			<polygon id="SVGID_00000145763765879997828230000014897316703774337937_" points="16.8,-5.8 -7,59.4 58.2,83.2 82,17.9 
				16.8,-5.8 			"/>
		</defs>
		<clipPath id="SVGID_00000117642073399607207800000011191847593769571463_">
			<use xlink:href="#SVGID_1_"  style="overflow:visible;"/>
		</clipPath>
		
			<clipPath id="SVGID_00000006682454173682866710000013531479970044450218_" style="clip-path:url(#SVGID_00000117642073399607207800000011191847593769571463_);">
			<use xlink:href="#SVGID_00000152253276709092122650000004003977451817015683_"  style="overflow:visible;"/>
		</clipPath>
		
			<clipPath id="SVGID_00000090991428248426731190000015570755624195964856_" style="clip-path:url(#SVGID_00000006682454173682866710000013531479970044450218_);">
			<use xlink:href="#SVGID_00000145763765879997828230000014897316703774337937_"  style="overflow:visible;"/>
		</clipPath>
		<path style="display:none;clip-path:url(#SVGID_00000090991428248426731190000015570755624195964856_);fill:#FFFFFF;" d="
			M69.3,50.2c-6.4,17.5-25.8,26.6-43.3,20.2C8.4,64.1-0.7,44.7,5.7,27.1S31.5,0.5,49.1,6.9S75.7,32.7,69.3,50.2"/>
		<path style="clip-path:url(#SVGID_00000090991428248426731190000015570755624195964856_);fill:#487FAA;" d="M69.3,50.2l-0.8-0.3
			c-3.1,8.5-9.4,15-17,18.6c-7.6,3.6-16.6,4.2-25.2,1.1c-8.5-3.1-15-9.4-18.6-17C4.1,44.9,3.5,36,6.6,27.4c3.1-8.5,9.4-15,17-18.6
			c7.6-3.6,16.6-4.2,25.2-1.1c8.5,3.1,15,9.4,18.6,17c3.6,7.6,4.2,16.6,1.1,25.2L69.3,50.2l0.8,0.3c6.6-18-2.7-37.9-20.7-44.5
			c-18-6.6-37.9,2.7-44.5,20.7c-6.6,18,2.7,37.9,20.7,44.5c18,6.6,37.9-2.7,44.5-20.7L69.3,50.2L69.3,50.2z"/>
		<path style="display:none;clip-path:url(#SVGID_00000090991428248426731190000015570755624195964856_);fill:#FFFFFF;" d="
			M66.9,49.4C61,65.6,43,74,26.8,68.1C10.5,62.2,2.1,44.2,8.1,28C14,11.7,32,3.3,48.2,9.2C64.5,15.1,72.9,33.1,66.9,49.4"/>
		<path style="clip-path:url(#SVGID_00000090991428248426731190000015570755624195964856_);fill:#487FAA;" d="M66.9,49.4l-0.4-0.2
			c-2.9,8-8.8,14.1-16,17.4c-7.2,3.3-15.6,3.9-23.6,1c-8-2.9-14.1-8.8-17.4-16c-3.3-7.2-3.9-15.6-1-23.6c2.9-8,8.8-14.1,16-17.4
			c7.2-3.3,15.6-3.9,23.6-1c8,2.9,14.1,8.8,17.4,16c3.3,7.2,3.9,15.6,1,23.6L66.9,49.4l0.4,0.2c6-16.5-2.5-34.7-19-40.7
			c-16.5-6-34.7,2.5-40.7,19c-6,16.5,2.5,34.7,19,40.7c16.5,6,34.7-2.5,40.7-19L66.9,49.4L66.9,49.4z"/>
		<path style="display:none;clip-path:url(#SVGID_00000090991428248426731190000015570755624195964856_);fill:#FFFFFF;" d="
			M56.1,45.4C52.4,55.7,41,61,30.7,57.3c-10.3-3.7-15.6-15.1-11.8-25.4C22.6,21.6,34,16.3,44.3,20.1C54.6,23.8,59.9,35.2,56.1,45.4
			L56.1,45.4z"/>
		<path style="clip-path:url(#SVGID_00000090991428248426731190000015570755624195964856_);fill:#487FAA;" d="M56.1,45.4l-0.3-0.1
			c-1.8,5.1-5.6,8.9-10.1,11c-4.5,2.1-9.9,2.5-14.9,0.7c-5.1-1.8-8.9-5.6-11-10.1c-2.1-4.5-2.5-9.9-0.7-14.9
			c1.8-5.1,5.6-8.9,10.1-11c4.5-2.1,9.9-2.5,14.9-0.7c5.1,1.8,8.9,5.6,11,10.1c2.1,4.5,2.5,9.9,0.7,14.9L56.1,45.4l0.3,0.1
			c3.8-10.4-1.6-22-12-25.8c-10.4-3.8-22,1.6-25.8,12c-3.8,10.4,1.6,22,12,25.8c10.4,3.8,22-1.6,25.8-12L56.1,45.4L56.1,45.4z"/>
		
			<path style="clip-path:url(#SVGID_00000090991428248426731190000015570755624195964856_);fill-rule:evenodd;clip-rule:evenodd;fill:#AF4F21;" d="
			M32.9,37.9c0,0,0-0.1,0.1-0.1l0-0.1c0.1-0.2,0.1-0.4,0-0.6c-0.1-0.2-0.2-0.3-0.5-0.4c-0.2-0.1-0.5-0.1-0.7,0
			c-0.2,0.1-0.4,0.3-0.6,0.6L32.9,37.9L32.9,37.9z M33.8,39.1l-3-1.1c-0.1,0.3-0.1,0.6,0.1,0.8c0.1,0.2,0.4,0.4,0.7,0.5
			c0.2,0.1,0.5,0.1,0.7,0.2c0.3,0,0.5,0,0.8,0l-0.5,1c-0.3,0-0.6,0-0.8-0.1c-0.3-0.1-0.5-0.1-0.8-0.2c-0.7-0.2-1.1-0.6-1.4-1.1
			c-0.2-0.5-0.3-1,0-1.7c0.1-0.3,0.3-0.7,0.6-0.9c0.3-0.3,0.5-0.5,0.9-0.6c0.3-0.1,0.6-0.2,1-0.2c0.4,0,0.7,0.1,1.1,0.2
			c0.6,0.2,1,0.5,1.2,1c0.2,0.4,0.2,0.9,0,1.5c0,0.1-0.1,0.2-0.2,0.4C33.9,38.8,33.8,39,33.8,39.1L33.8,39.1z M30.4,35l-0.8,1.1
			c-0.1-0.1-0.2-0.2-0.3-0.2c-0.1-0.1-0.2-0.1-0.3-0.1c-0.3-0.1-0.6-0.1-0.8,0c-0.2,0.1-0.5,0.4-0.8,0.9l-1.1,1.7l-1.5-0.5l2.4-3.9
			l1.3,0.5l-0.4,0.7c0.3-0.2,0.6-0.4,0.9-0.4c0.3-0.1,0.5,0,0.8,0.1c0.1,0,0.2,0.1,0.3,0.1C30.2,34.9,30.3,35,30.4,35L30.4,35z
			 M22.9,30.7l1.7,0.6c0.8,0.3,1.3,0.6,1.6,1c0.3,0.4,0.3,0.8,0.1,1.4c-0.2,0.7-0.6,1.1-1.2,1.3c-0.6,0.2-1.2,0.2-2-0.1
			c-0.1,0-0.2-0.1-0.3-0.1c-0.1-0.1-0.3-0.1-0.5-0.2l-1.2,1.9l-1.5-0.5L22.9,30.7L22.9,30.7z M23.9,32.2L23,33.6l0.4,0.1
			c0.4,0.1,0.7,0.2,0.9,0.1c0.3-0.1,0.4-0.2,0.5-0.5c0.1-0.2,0.1-0.4,0-0.6c-0.1-0.2-0.3-0.3-0.6-0.4L23.9,32.2L23.9,32.2z"/>
		
			<path style="clip-path:url(#SVGID_00000090991428248426731190000015570755624195964856_);fill-rule:evenodd;clip-rule:evenodd;fill:#487FAA;" d="
			M51.9,43l-0.7,0.8c-0.2-0.2-0.4-0.3-0.6-0.4c-0.2-0.1-0.3-0.2-0.4-0.2c-0.2-0.1-0.4-0.1-0.5-0.1c-0.1,0-0.2,0.1-0.3,0.2
			c-0.1,0.2,0.1,0.4,0.4,0.6c0.1,0.1,0.2,0.2,0.3,0.3c0.3,0.2,0.4,0.5,0.5,0.7c0.1,0.2,0.1,0.4,0,0.7c-0.2,0.5-0.5,0.8-1,0.9
			c-0.5,0.2-1,0.1-1.6-0.1c-0.3-0.1-0.6-0.2-0.8-0.4c-0.3-0.1-0.5-0.3-0.7-0.5l0.7-0.9c0.2,0.2,0.3,0.3,0.5,0.4
			c0.2,0.1,0.4,0.2,0.6,0.3c0.2,0.1,0.4,0.1,0.6,0.1c0.2,0,0.3-0.1,0.3-0.2c0.1-0.2,0-0.4-0.3-0.6c0,0-0.1-0.1-0.1-0.1
			c-0.3-0.3-0.6-0.6-0.7-0.8c-0.1-0.2-0.1-0.5,0-0.8c0.1-0.4,0.5-0.7,0.9-0.8c0.5-0.1,1-0.1,1.6,0.1c0.2,0.1,0.5,0.2,0.7,0.3
			C51.4,42.7,51.6,42.8,51.9,43L51.9,43z M47.3,39.2l1.4,0.5l-0.6,1l-1.4-0.5L47.3,39.2L47.3,39.2z M46.3,40.8l1.4,0.5l-2.4,3.9
			l-1.4-0.5L46.3,40.8L46.3,40.8z M41.7,37l1.5,0.5l-1.4,2.3c0.3-0.1,0.6-0.2,0.8-0.2c0.3,0,0.5,0,0.8,0.1c0.4,0.2,0.7,0.4,0.9,0.8
			c0.1,0.3,0.1,0.8,0,1.2c-0.1,0.1-0.1,0.3-0.2,0.5c-0.1,0.2-0.2,0.4-0.4,0.6l-1,1.6l-1.5-0.5l1.2-2c0-0.1,0.1-0.1,0.1-0.2
			c0-0.1,0.1-0.1,0.1-0.2c0.1-0.2,0.1-0.4,0-0.5c-0.1-0.1-0.2-0.2-0.3-0.3c-0.3-0.1-0.6-0.1-0.9,0.1c-0.3,0.2-0.6,0.5-0.8,0.9
			l-1,1.6l-1.5-0.5L41.7,37L41.7,37z M36.4,35.6l4.4,1.6l-0.6,1l-1.5-0.5l-2.6,4.2l-1.5-0.6l2.7-4.2l-1.4-0.5L36.4,35.6L36.4,35.6z"
			/>
		
			<path style="clip-path:url(#SVGID_00000090991428248426731190000015570755624195964856_);fill-rule:evenodd;clip-rule:evenodd;fill:#4C97B3;" d="
			M54,41.5c0.2,0.1,0.3,0.2,0.3,0.3c-0.1,0.2-0.2,0.2-0.4,0.1l-0.2-0.1l0.2-0.4L54,41.5L54,41.5z M54.1,41.3l-0.5-0.2l-0.5,1.3
			l0.2,0.1l0.2-0.6l0.2,0.1l0.1,0.6l0.3,0.1l-0.1-0.7c0.2,0,0.4-0.1,0.4-0.2C54.6,41.7,54.5,41.5,54.1,41.3L54.1,41.3z M54.8,42.4
			c-0.1,0.3-0.3,0.5-0.5,0.6c-0.3,0.1-0.5,0.1-0.8,0c-0.3-0.1-0.5-0.3-0.6-0.5c-0.1-0.3-0.1-0.5,0-0.8c0.1-0.3,0.3-0.5,0.6-0.6
			c0.2-0.1,0.5-0.1,0.8,0c0.3,0.1,0.5,0.3,0.6,0.6C54.9,41.8,54.9,42.1,54.8,42.4L54.8,42.4z M54.2,40.9c-0.3-0.1-0.6-0.1-0.9,0
			c-0.3,0.1-0.5,0.4-0.6,0.7c-0.1,0.3-0.1,0.6,0,0.9c0.1,0.3,0.4,0.5,0.7,0.6c0.3,0.1,0.6,0.1,0.9,0c0.3-0.1,0.5-0.4,0.6-0.7
			c0.1-0.3,0.1-0.6,0-0.9C54.8,41.2,54.5,41,54.2,40.9L54.2,40.9z"/>
		
			<polygon style="clip-path:url(#SVGID_00000090991428248426731190000015570755624195964856_);fill-rule:evenodd;clip-rule:evenodd;fill:#FFFFFF;" points="
			41.3,36.6 43.7,37.4 43.4,38.1 41.1,37.3 41.3,36.6 		"/>
		<polygon style="clip-path:url(#SVGID_00000090991428248426731190000015570755624195964856_);fill:#AF4F21;" points="17.5,47.4 
			10.5,50.3 10.1,49.3 17.1,46.5 17.5,47.4 		"/>
		<path style="clip-path:url(#SVGID_00000090991428248426731190000015570755624195964856_);fill:#AF4F21;" d="M12.6,52.2
			c0,0.5,0.2,1.2,0.5,1.7c0.5,0.8,1.3,1,2,0.6c0.6-0.4,0.7-0.9,0.5-2c-0.3-1.3-0.2-2.3,0.7-2.9c1-0.6,2.3-0.3,3.1,1
			c0.4,0.6,0.6,1.2,0.6,1.6l-0.8,0.2c0-0.3-0.1-0.8-0.5-1.4c-0.6-0.9-1.3-0.9-1.7-0.6c-0.6,0.4-0.6,1-0.4,2.1
			c0.3,1.4,0.1,2.2-0.8,2.8c-1,0.6-2.3,0.5-3.3-1c-0.4-0.6-0.6-1.4-0.6-1.9L12.6,52.2L12.6,52.2z"/>
		<path style="clip-path:url(#SVGID_00000090991428248426731190000015570755624195964856_);fill:#AF4F21;" d="M19.1,56.7
			c-1.1,1.3-1.3,2.9-0.1,3.9c1.2,1,2.8,0.5,3.9-0.9c1-1.2,1.4-2.9,0.1-3.9C21.7,54.7,20.1,55.4,19.1,56.7L19.1,56.7z M23.7,60.4
			c-1.7,2-3.8,2.1-5.3,0.8c-1.6-1.3-1.6-3.4-0.1-5.2c1.6-1.9,3.7-2.1,5.3-0.8C25.1,56.5,25.1,58.6,23.7,60.4L23.7,60.4z"/>
		<path style="clip-path:url(#SVGID_00000090991428248426731190000015570755624195964856_);fill:#AF4F21;" d="M28.9,61.5
			c-0.3,0.9,0.1,1.7,0.9,1.9c0.6,0.2,1.2,0,1.6-0.3c0.1-0.1,0.1-0.2,0.2-0.3c0.4-1.2,0.2-2.3-0.8-2.6C29.9,60,29.2,60.5,28.9,61.5
			L28.9,61.5z M27.3,65.5c0.2,0.1,0.4,0.1,0.8,0.2c0.6,0.1,1.2,0,1.7-0.3c0.6-0.3,1.1-0.8,1.5-1.6l0,0c-0.5,0.4-1.2,0.5-1.9,0.3
			c-1.3-0.4-1.8-1.6-1.4-2.8c0.4-1.3,1.7-2.2,3.1-1.8c1.4,0.4,2,1.8,1.5,3.7c-0.5,1.5-1.3,2.5-2.2,2.9c-0.7,0.4-1.5,0.5-2.3,0.3
			c-0.4,0-0.7-0.1-0.9-0.2L27.3,65.5L27.3,65.5z"/>
		<path style="clip-path:url(#SVGID_00000090991428248426731190000015570755624195964856_);fill:#AF4F21;" d="M34.9,64.2
			c-0.1,1.9,0.5,3,1.4,3c1,0,1.5-1.1,1.6-3c0-1.8-0.4-3-1.4-3C35.6,61.1,35,62.2,34.9,64.2L34.9,64.2z M38.9,64.2
			c-0.1,2.5-1,3.8-2.7,3.8c-1.4,0-2.4-1.4-2.3-3.8c0.1-2.5,1.2-3.8,2.7-3.7C38.1,60.4,39,61.8,38.9,64.2L38.9,64.2z"/>
		<path style="clip-path:url(#SVGID_00000090991428248426731190000015570755624195964856_);fill:#AF4F21;" d="M41.5,63.8
			c0.4,1.9,1.3,2.8,2.2,2.6c1-0.2,1.2-1.5,0.7-3.3c-0.4-1.8-1.1-2.8-2.2-2.6C41.4,60.7,41.1,61.9,41.5,63.8L41.5,63.8z M45.4,62.8
			c0.6,2.4,0,4-1.6,4.4c-1.4,0.3-2.7-0.7-3.3-3.1c-0.6-2.4,0.1-4,1.6-4.3C43.6,59.4,44.8,60.5,45.4,62.8L45.4,62.8z"/>
		<polygon style="clip-path:url(#SVGID_00000090991428248426731190000015570755624195964856_);fill:#AF4F21;" points="47.5,58.8 
			47.5,58.8 46.7,60 46.2,59.5 47.2,58 47.9,57.5 51.5,64 50.6,64.4 47.5,58.8 		"/>
		<polygon style="clip-path:url(#SVGID_00000090991428248426731190000015570755624195964856_);fill:#AF4F21;" points="14,19.9 
			16.3,22 18.9,19.3 16.5,17.2 17.2,16.4 22.8,21.7 22.1,22.4 19.5,19.9 17,22.6 19.6,25.1 18.9,25.8 13.3,20.6 14,19.9 		"/>
		<path style="clip-path:url(#SVGID_00000090991428248426731190000015570755624195964856_);fill:#AF4F21;" d="M26.1,16l-1.7-1.6
			c-0.4-0.4-0.7-0.7-1-1l0,0c0.1,0.4,0.2,0.9,0.3,1.4l0.4,2.3L26.1,16L26.1,16z M24.2,17.9l0.4,2.5l-0.9,0.5l-1.3-7.9l1-0.6l5.9,5.5
			l-0.9,0.5l-1.8-1.7L24.2,17.9L24.2,17.9z"/>
		<path style="clip-path:url(#SVGID_00000090991428248426731190000015570755624195964856_);fill:#AF4F21;" d="M35.7,16.3
			c-0.3,0.2-1,0.6-1.9,0.7c-2.1,0.4-3.9-0.6-4.4-3.1c-0.4-2.4,0.8-4.2,3.2-4.7c0.9-0.2,1.6-0.1,1.8,0l-0.1,0.8
			c-0.4-0.1-0.9-0.1-1.6,0c-1.8,0.3-2.7,1.7-2.3,3.6c0.4,1.8,1.6,2.8,3.4,2.5c0.6-0.1,1.2-0.4,1.5-0.6L35.7,16.3L35.7,16.3z"/>
		<path style="clip-path:url(#SVGID_00000090991428248426731190000015570755624195964856_);fill:#AF4F21;" d="M42.2,16.9
			c-0.4,0.1-1.1,0.3-2,0.2c-2.1-0.2-3.6-1.7-3.4-4.2c0.2-2.4,2-3.8,4.4-3.6c0.9,0.1,1.5,0.4,1.8,0.5l-0.3,0.8
			c-0.3-0.2-0.9-0.4-1.5-0.5c-1.8-0.2-3.1,0.8-3.3,2.8c-0.2,1.9,0.8,3.2,2.6,3.3c0.6,0.1,1.2,0,1.6-0.2L42.2,16.9L42.2,16.9z"/>
		<path style="clip-path:url(#SVGID_00000090991428248426731190000015570755624195964856_);fill:#AF4F21;" d="M45.8,14.4
			c0.2,0.1,0.4,0.3,0.7,0.4c1.1,0.4,2,0.2,2.4-0.8c0.4-0.9-0.1-1.7-1.1-2.1c-0.4-0.2-0.7-0.3-0.9-0.3L45.8,14.4L45.8,14.4z
			 M46.3,10.6c0.5,0.1,1.1,0.3,1.8,0.6c0.9,0.4,1.5,0.8,1.7,1.4c0.2,0.5,0.3,1.1,0,1.7c-0.3,0.6-0.7,1.1-1.2,1.3
			c-0.7,0.3-1.6,0.3-2.5-0.1c-0.3-0.1-0.5-0.2-0.7-0.4l-1.2,2.8l-0.9-0.4L46.3,10.6L46.3,10.6z"/>
		<path style="clip-path:url(#SVGID_00000090991428248426731190000015570755624195964856_);fill:#AF4F21;" d="M55,25.1
			c-0.4-0.1-1-0.5-1.7-1.2c-1.5-1.5-1.7-3.6,0.1-5.4c1.7-1.7,4-1.7,5.6,0c0.7,0.7,1,1.2,1,1.5l-0.7,0.4c-0.1-0.4-0.4-0.9-0.9-1.3
			c-1.3-1.3-2.9-1.3-4.3,0.1c-1.3,1.3-1.4,2.9-0.1,4.2c0.4,0.4,1,0.8,1.4,0.9L55,25.1L55,25.1z"/>
		<polygon style="clip-path:url(#SVGID_00000090991428248426731190000015570755624195964856_);fill:#AF4F21;" points="60.6,28.2 
			59.2,25.6 56.8,27 58.4,29.9 57.6,30.3 55.5,26.5 62.2,22.8 64.2,26.4 63.5,26.8 62,24.1 59.9,25.2 61.3,27.8 60.6,28.2 		"/>
		<path style="clip-path:url(#SVGID_00000090991428248426731190000015570755624195964856_);fill:#AF4F21;" d="M62.3,31.6l0.2,1
			c0.3,1,1,1.5,1.8,1.3c1-0.2,1.2-1,1-2c-0.1-0.5-0.2-0.8-0.3-0.9L62.3,31.6L62.3,31.6z M65.4,29.8c0.2,0.5,0.4,1.1,0.6,1.8
			c0.3,1,0.2,1.7-0.1,2.3c-0.2,0.4-0.7,0.8-1.3,0.9c-1,0.2-1.8-0.2-2.2-0.9l0,0c-0.1,0.6-0.5,1.1-1.2,1.4c-1,0.5-1.6,0.8-1.9,1.1
			l-0.2-1c0.2-0.2,0.8-0.5,1.7-0.9c1-0.5,1.3-1,1.1-1.8l-0.2-0.9l-3.2,0.8l-0.2-1L65.4,29.8L65.4,29.8z"/>
		<polygon style="clip-path:url(#SVGID_00000090991428248426731190000015570755624195964856_);fill:#AF4F21;" points="66,39.5 
			66.1,37.1 67,37.2 66.8,42.8 65.9,42.8 66,40.5 59.2,40.2 59.3,39.2 66,39.5 		"/>
		<path style="clip-path:url(#SVGID_00000090991428248426731190000015570755624195964856_);fill:#C3B3B2;" d="M11.7,37.2
			c-0.7-0.3-1.1-1-0.8-1.7c0.3-0.7,1-1.1,1.7-0.8c0.7,0.3,1.1,1,0.8,1.7C13.1,37.1,12.4,37.4,11.7,37.2"/>
		<path style="clip-path:url(#SVGID_00000090991428248426731190000015570755624195964856_);fill:#C3B3B2;" d="M58.3,54.1
			c-0.7-0.3-1.1-1-0.8-1.7c0.3-0.7,1-1.1,1.7-0.8c0.7,0.3,1.1,1,0.8,1.7C59.8,54,59,54.4,58.3,54.1"/>
	</g>
</g>
<g>
	<circle class="st0" cx="188.1" cy="39" r="34.2"/>
	<circle class="st0" cx="188.4" cy="39" r="34.2"/>
	<path class="st12" d="M188.4,5.2c18.6,0,33.7,15.1,33.7,33.7c0,18.6-15.1,33.8-33.7,33.8c-18.6,0-33.8-15.1-33.8-33.8
		C154.7,20.4,169.8,5.2,188.4,5.2"/>
	<path class="st13" d="M214.5,60.9l-0.7-0.6c-5.9,7-14.1,11-22.5,11.7c-8.5,0.7-17.2-1.7-24.2-7.6c-7-5.9-11-14.1-11.7-22.5
		c-0.7-8.5,1.7-17.2,7.6-24.2c5.9-7,14.1-11,22.5-11.7c8.5-0.7,17.2,1.7,24.2,7.6c7,5.9,11,14.1,11.7,22.5
		c0.7,8.5-1.7,17.2-7.6,24.2L214.5,60.9l0.7,0.6c12.4-14.8,10.5-36.9-4.3-49.3C196.1-0.2,174,1.7,161.6,16.5l0,0
		c-12.4,14.8-10.5,36.9,4.3,49.3l0,0c14.8,12.4,36.9,10.5,49.3-4.3"/>
	<path class="st13" d="M212.1,58.9l-0.3-0.3c-5.4,6.5-13,10.1-20.7,10.8c-7.8,0.7-15.8-1.6-22.3-7c-6.5-5.4-10.1-12.9-10.8-20.7
		c-0.7-7.8,1.6-15.8,7-22.3c5.4-6.5,13-10.1,20.7-10.8c7.8-0.7,15.8,1.6,22.3,7c6.5,5.4,10.1,12.9,10.8,20.7
		c0.7,7.8-1.6,15.8-7,22.3L212.1,58.9l0.3,0.3c11.2-13.3,9.4-33.1-3.9-44.3c-13.3-11.2-33.1-9.4-44.3,3.9
		c-11.2,13.3-9.4,33.1,3.9,44.3c13.3,11.2,33.1,9.4,44.3-3.9"/>
	<path class="st13" d="M203.7,51.8l-0.2-0.2c-3.5,4.2-8.3,6.5-13.4,7c-5,0.4-10.2-1-14.4-4.5c-4.2-3.5-6.5-8.3-7-13.4
		c-0.4-5,1-10.2,4.5-14.4c3.5-4.2,8.3-6.5,13.4-7c5-0.4,10.2,1,14.4,4.5c4.2,3.5,6.5,8.4,7,13.4c0.4,5-1,10.2-4.5,14.4L203.7,51.8
		l0.2,0.2c7.2-8.6,6.1-21.4-2.5-28.6c-8.6-7.2-21.4-6.1-28.6,2.5c-7.2,8.6-6.1,21.4,2.5,28.6c8.6,7.2,21.4,6.1,28.6-2.5"/>
	<g>
		<path class="st14" d="M173.5,15.3l2.7-1.5l0.3,0.9l-1.4,0.8l0.6,1l1.2-0.7l0.5,0.8l-1.2,0.7L177,19l-1.2,0.6L173.5,15.3z"/>
		<path class="st14" d="M180.1,15.6l-0.3,0.1l0.6,1.7l-1.3,0.4l-1.6-4.7l1.6-0.6c1.3-0.5,2.1-0.2,2.5,0.8c0.2,0.6,0.1,1.1-0.4,1.6
			l1.9,1.6l-1.4,0.5L180.1,15.6z M179.4,14.9l0.4-0.1c0.4-0.1,0.6-0.4,0.4-0.9c-0.1-0.4-0.4-0.5-0.9-0.3l-0.4,0.1L179.4,14.9z"/>
		<path class="st14" d="M185.8,12.1l-1.7,0.2l0.2,1l1.5-0.2l0.1,0.9l-1.5,0.2l0.2,1.1l1.8-0.3l0.1,0.9l-3.1,0.5l-0.7-4.9l3.1-0.5
			L185.8,12.1z"/>
		<path class="st14" d="M190.4,12.1l-1.7,0l0,1.1l1.5,0l0,0.9l-1.5,0l0,1.1l1.8,0l0,0.9l-3.1-0.1l0.1-5l3.2,0.1L190.4,12.1z"/>
		<path class="st14" d="M197.9,15.3c-0.5,1.5-1.6,2.3-3,1.8c-1.4-0.4-1.9-1.6-1.4-3.2c0.5-1.5,1.6-2.3,2.9-1.8
			S198.4,13.8,197.9,15.3z M194.9,14.4c-0.4,1.2-0.2,1.7,0.4,1.9c0.6,0.2,1-0.2,1.3-1.3c0.4-1.2,0.2-1.7-0.4-1.9
			C195.6,12.9,195.2,13.3,194.9,14.4z"/>
		<path class="st14" d="M200.1,13.7l2.7,1.4l-0.6,0.8l-1.4-0.7l-0.6,1.1l1.2,0.7l-0.4,0.8l-1.2-0.7l-0.9,1.7l-1.2-0.6L200.1,13.7z"
			/>
		<path class="st14" d="M204.9,21.8l-1-0.9l-0.9,0.6l-1-0.9l4.4-2.7l1.2,1.1l-2.3,4.7l-1-0.9L204.9,21.8z M205.4,20.9l1.1-1.8
			l-1.7,1.2L205.4,20.9z"/>
		<path class="st14" d="M210.1,25.7c-1.6,1.2-2.7,0.5-3.5-0.6l-0.9-1.3l4-2.9l0.9,1.2C211.4,23.3,211.8,24.5,210.1,25.7z
			 M209.7,22.6l-2.5,1.8l0.2,0.3c0.4,0.5,0.9,0.7,1.9-0.1c1-0.7,1-1.2,0.6-1.8L209.7,22.6z"/>
		<path class="st14" d="M212.4,30.5c-1.8,0.8-2.8-0.1-3.3-1.3l-0.7-1.5l4.5-2l0.6,1.4C214.1,28.4,214.3,29.7,212.4,30.5z
			 M212.7,27.4l-2.8,1.3L210,29c0.3,0.6,0.7,0.8,1.9,0.3c1.1-0.5,1.2-1,1-1.6L212.7,27.4z"/>
		<path class="st14" d="M210.6,33.6l-0.3-1.3l4.8-1.3l0.3,1.3L210.6,33.6z"/>
		<path class="st14" d="M215.2,37.4l-0.2-1.2l-3.9,0.5l-0.2-1.3l3.9-0.5l-0.2-1.2l1-0.1l0.5,3.9L215.2,37.4z"/>
		<path class="st14" d="M211.2,39.9l0-1.3l5,0.1l0,1.3L211.2,39.9z"/>
		<path class="st14" d="M210.9,43.4l0.3-1.7l5.1-0.6l-0.2,1.4l-4.1,0.2l3.8,1.4l-0.2,1.3L210.9,43.4z"/>
		<path class="st14" d="M213.3,49.2l0.6-1.6l-1-0.3l-0.5,1.4l-0.9-0.3L212,47l-1.1-0.4l-0.6,1.7l-0.9-0.3l1-3l4.7,1.6l-1,3
			L213.3,49.2z"/>
		<path class="st14" d="M211.4,53.9l-0.3-0.9c0.4-0.2,0.7-0.4,0.9-0.7c0.2-0.3,0.2-0.6-0.1-0.7c-0.3-0.1-0.4,0-1,0.5
			c-0.7,0.7-1.4,0.9-2.1,0.5c-0.8-0.5-1-1.4-0.4-2.6c0.4-0.8,1-1.2,1.6-1.3l0.3,0.9c-0.4,0.2-0.8,0.4-1,0.8
			c-0.2,0.4-0.2,0.7,0.1,0.9c0.3,0.2,0.5,0.1,1-0.4c0.9-0.8,1.5-0.9,2.1-0.6c0.8,0.4,0.9,1.4,0.4,2.3
			C212.5,53.3,212,53.7,211.4,53.9z"/>
		<path class="st14" d="M208,54.6c-0.3-0.2-0.4-0.7-0.1-1s0.7-0.4,1-0.1c0.3,0.2,0.4,0.7,0.1,1S208.3,54.8,208,54.6z"/>
		<path class="st14" d="M202.4,57.3l1.3-1.2l2.9,2.3l-2.1-3.1l1.2-1.2l4,3.1l-1,0.9l-3-2.6l2.3,3.3l-1,1l-3.1-2.5l2.4,3.3l-0.9,0.9
			L202.4,57.3z"/>
		<path class="st14" d="M200.1,58.7l1.1-0.7l2.7,4.2l-1.1,0.7L200.1,58.7z"/>
		<path class="st14" d="M197.9,64.2l1.1-0.5l-1.7-3.6l1.2-0.6l1.7,3.6l1.1-0.5l0.4,0.9l-3.5,1.6L197.9,64.2z"/>
		<path class="st14" d="M193.5,63.5l1.3-0.3l-0.5-2l1.3-0.3l1.2,4.8l-1.3,0.3l-0.4-1.8l-1.3,0.3l0.4,1.8l-1.3,0.3l-1.2-4.8l1.3-0.3
			L193.5,63.5z"/>
		<path class="st14" d="M187.6,63l-1.9-0.1l0.2-1L189,62l-0.2,5l-1.3,0L187.6,63z"/>
		<path class="st14" d="M180.6,63.4c0.3-1.6,1.4-2.4,2.8-2.1c1.4,0.3,2,1.4,1.7,3c-0.3,1.6-1.4,2.4-2.8,2.1
			C180.9,66.1,180.3,65,180.6,63.4z M183.8,64.1c0.3-1.2,0.1-1.7-0.5-1.8c-0.6-0.1-1,0.3-1.2,1.4c-0.3,1.2-0.1,1.7,0.5,1.8
			C183.1,65.6,183.5,65.2,183.8,64.1z"/>
		<path class="st14" d="M178.3,59.7l1.5,0.7l-0.7,5.1l-1.3-0.6l0.8-4l-2.3,3.3l-1.2-0.5L178.3,59.7z"/>
		<path class="st14" d="M171.9,60.5l1.4,1l0.6-0.9l-1.2-0.8l0.5-0.8l1.2,0.8l0.6-0.9l-1.5-1l0.5-0.8l2.6,1.8l-2.8,4.1l-2.6-1.8
			L171.9,60.5z"/>
		<path class="st14" d="M167.3,55.9l0.8,0.9l2.9-2.7l0.9,1l-2.9,2.7l0.8,0.9l-0.7,0.7l-2.6-2.9L167.3,55.9z"/>
		<path class="st14" d="M165.7,50.8c1.4-0.9,2.7-0.7,3.4,0.5c0.8,1.2,0.4,2.4-1,3.3c-1.4,0.9-2.6,0.7-3.4-0.5
			C163.9,52.9,164.3,51.7,165.7,50.8z M167.4,53.5c1-0.6,1.2-1.2,0.9-1.7c-0.3-0.5-0.9-0.5-1.9,0.1s-1.2,1.1-0.9,1.7
			C165.8,54.1,166.4,54.1,167.4,53.5z"/>
		<path class="st14" d="M165.2,45.5l0.4,1.3l1-0.1l0.4,1.3l-5.2,0.1l-0.5-1.5l4.3-2.9l0.4,1.3L165.2,45.5z M164.4,46l-1.8,1l2.1-0.2
			L164.4,46z"/>
		<path class="st14" d="M165.3,39.3l0.2,1.7l-3.6,1.6c0.5-0.1,1.1-0.3,2-0.4l1.7-0.2l0.1,1.2l-5,0.5l-0.2-1.6l3.6-1.7
			c-0.5,0.1-1.1,0.3-1.9,0.4l-1.8,0.2l-0.1-1.2L165.3,39.3z"/>
		<path class="st14" d="M165.4,37.1l-0.1,1.3l-5-0.3l0.1-1.3L165.4,37.1z"/>
		<path class="st14" d="M166.6,31.2l-0.3,1.3l-1.8-0.4c-0.7-0.1-1.3-0.3-2-0.5l3.1,1.4l-0.3,1.2l-3.4-0.1c0.8,0.1,1.3,0.2,2,0.4
			l1.8,0.5l-0.3,1.3l-4.8-1.5l0.4-1.6l3.4,0.1l-3.1-1.3l0.4-1.6L166.6,31.2z"/>
		<path class="st14" d="M167,28l-0.6,1.2l0.8,0.6l-0.6,1.2l-3.8-3.5l0.7-1.4l5.1,0.8l-0.6,1.3L167,28z M166.1,27.8l-2.1-0.5l1.7,1.3
			L166.1,27.8z"/>
		<path class="st14" d="M168.9,25l1.1-1.5l0.7,0.7l-1.8,2.5l-4-2.9l0.8-1.1L168.9,25z"/>
		<path class="st14" d="M170.6,18l0.1,0.9c-0.4,0-0.8,0.2-1.1,0.5c-0.3,0.3-0.3,0.5-0.1,0.7c0.2,0.2,0.4,0.1,1.1-0.2
			c0.9-0.5,1.6-0.5,2.2,0.2c0.7,0.7,0.6,1.7-0.4,2.6c-0.7,0.6-1.3,0.8-1.9,0.8l0-1c0.5,0,0.9-0.2,1.2-0.5c0.3-0.3,0.4-0.6,0.1-0.9
			c-0.2-0.2-0.5-0.2-1.1,0.1c-1.1,0.5-1.7,0.5-2.2-0.1c-0.6-0.7-0.5-1.6,0.3-2.4C169.4,18.3,170,18,170.6,18z"/>
	</g>
	<g>
		<path class="st15" d="M193,52.6l-0.1,0v0h-0.9v0l-2.4-0.4c-1.6-0.3-2.8-0.4-3.6-0.5c-0.8-0.1-1.7-0.1-2.6-0.2
			c-0.9,0-1.5-0.1-2-0.2c-0.4-0.1-0.8-0.2-1.2-0.3s-0.7-0.3-1-0.4c-0.3-0.2-0.5-0.3-0.8-0.6c-0.3-0.2-0.5-0.5-0.7-0.7
			c-0.2-0.3-0.3-0.5-0.4-0.8c-0.1-0.3-0.2-0.5-0.3-0.8c-0.1-0.3-0.1-0.5-0.1-0.7c0-0.2,0-0.5,0-0.7c0-0.2,0.1-0.5,0.2-0.9
			s0.2-0.7,0.3-0.9c0.1-0.2,0.2-0.4,0.5-0.6c0.2-0.2,0.4-0.3,0.4-0.4c0.1-0.1,0.3-0.2,0.7-0.5c0.4-0.3,0.7-0.5,0.9-0.6
			s0.5-0.3,0.7-0.4c0.3-0.1,0.5-0.2,0.7-0.4s0.4-0.3,0.6-0.4c0.2-0.2,0.3-0.3,0.4-0.3c0.1-0.1,0.1-0.1,0.2-0.2
			c0.1-0.1,0.1-0.1,0.1-0.1c0,0,0-0.1,0.1-0.1c0.1-0.1,0.1-0.1,0.2-0.2c0.1-0.1,0.4-0.4,0.9-1c0.5-0.6,0.8-0.9,0.8-0.9
			c0,0,0,0,0.1-0.1c0,0,0.1-0.1,0.3-0.3c0.2-0.2,0.3-0.4,0.5-0.5c0.2-0.2,0.4-0.3,0.6-0.5s0.5-0.3,0.7-0.4c0.2-0.1,0.4-0.1,0.6-0.2
			c0.1,0,0.3,0,0.6,0c0.3,0,0.5,0.1,0.8,0.2c0.3,0.1,0.5,0.2,0.7,0.3c0.2,0.1,0.4,0.3,0.6,0.5c0.2,0.2,0.3,0.3,0.5,0.5
			c0.1,0.1,0.3,0.5,0.7,1.1c0.3,0.6,0.7,1.2,1.1,1.9c0.4,0.6,0.8,1.2,1.2,1.7c0.4,0.5,0.6,0.8,0.8,1c0.2,0.2,0.3,0.3,0.3,0.4
			c0.1,0.1,0.1,0.1,0.1,0.1c0,0,0.1,0.1,0.1,0.1c0.1,0.1,0.1,0.1,0.2,0.2c0.1,0.1,0.2,0.2,0.4,0.4c0.2,0.2,0.4,0.4,0.6,0.7
			c0.2,0.3,0.4,0.6,0.5,0.9c0.1,0.2,0.2,0.5,0.4,0.9c0.1,0.3,0.2,0.6,0.2,0.8s0,0.5,0,0.8s0,0.6-0.1,0.8s-0.2,0.5-0.3,0.8
			c-0.1,0.3-0.2,0.4-0.2,0.5c0,0-0.1,0.1-0.1,0.2c-0.1,0.1-0.2,0.2-0.4,0.4c-0.2,0.2-0.4,0.3-0.7,0.5c-0.3,0.2-0.6,0.3-0.9,0.4
			c-0.3,0.1-0.6,0.2-0.9,0.2S193.1,52.5,193,52.6z"/>
		<path class="st15" d="M184,25.1l0.4-0.1h0.6v0l0.1,0l0.1,0l0,0c0,0,0.1,0,0.3,0.1c0.2,0.1,0.3,0.2,0.5,0.3
			c0.2,0.1,0.3,0.3,0.5,0.5c0.2,0.2,0.4,0.4,0.5,0.7c0.2,0.3,0.3,0.5,0.4,0.8c0.1,0.3,0.2,0.6,0.3,0.9c0.1,0.3,0.2,0.6,0.2,1
			c0.1,0.3,0.1,0.8,0.1,1.4c0,0.6,0,0.9,0,1.1c0,0.2-0.1,0.5-0.2,0.9c-0.1,0.4-0.2,0.7-0.3,1s-0.3,0.5-0.4,0.7s-0.3,0.4-0.4,0.5
			c-0.1,0.1-0.2,0.2-0.2,0.2c0,0-0.1,0.1-0.3,0.2c-0.2,0.1-0.4,0.2-0.5,0.2c-0.2,0.1-0.3,0.1-0.5,0.1c-0.2,0-0.4,0-0.4,0
			c-0.1,0-0.2-0.1-0.4-0.1s-0.4-0.2-0.6-0.3c-0.2-0.2-0.4-0.3-0.4-0.3c0,0,0-0.1-0.1-0.1c-0.1-0.1-0.1-0.1-0.1-0.1
			c0,0-0.1-0.2-0.3-0.5s-0.3-0.6-0.5-0.9s-0.3-0.7-0.4-1.1c-0.1-0.4-0.2-0.8-0.2-1.3c0-0.5-0.1-0.9,0-1.3c0-0.4,0.1-0.8,0.1-1.2
			c0.1-0.3,0.1-0.6,0.2-0.9c0.1-0.3,0.2-0.5,0.3-0.8c0.1-0.3,0.3-0.5,0.4-0.7c0.1-0.2,0.3-0.4,0.5-0.6
			C183.5,25.3,183.7,25.2,184,25.1z"/>
		<path class="st15" d="M194.5,26c0.3,0,0.6,0,0.7,0.1s0.4,0.1,0.5,0.3c0.2,0.1,0.3,0.3,0.5,0.4c0.1,0.2,0.3,0.4,0.4,0.6
			c0.1,0.2,0.2,0.5,0.2,0.7c0.1,0.2,0.1,0.6,0.1,1.1s0,0.9,0,1.1s-0.1,0.6-0.3,1s-0.3,0.9-0.5,1.3s-0.4,0.7-0.5,1s-0.4,0.5-0.6,0.8
			s-0.5,0.5-0.7,0.7c-0.2,0.2-0.5,0.4-0.7,0.5c-0.3,0.1-0.5,0.3-0.7,0.3c-0.2,0.1-0.5,0.1-0.8,0.1c-0.3,0-0.5,0-0.7-0.1
			s-0.3-0.1-0.5-0.2s-0.3-0.2-0.4-0.4c-0.1-0.2-0.3-0.4-0.4-0.6c-0.1-0.2-0.2-0.5-0.3-0.8c-0.1-0.3-0.1-0.7-0.1-1.2
			c0-0.5,0-0.9,0.1-1.3c0.1-0.4,0.2-0.8,0.3-1.2c0.1-0.3,0.3-0.7,0.5-1s0.4-0.7,0.7-1.1c0.3-0.4,0.4-0.6,0.4-0.6c0,0,0,0,0.1-0.1
			c0,0,0.1-0.1,0.1-0.1c0,0,0.1,0,0.1-0.1c0.1-0.1,0.1-0.1,0.1-0.1c0,0,0.1-0.1,0.2-0.2c0.1-0.1,0.3-0.2,0.6-0.4
			c0.3-0.2,0.5-0.3,0.8-0.4C193.9,26,194.2,26,194.5,26L194.5,26z"/>
		<path class="st15" d="M174.1,34.1l0-0.2h0v-1.1h0l0.1-0.5c0-0.3,0.1-0.6,0.2-0.8c0.1-0.3,0.2-0.5,0.3-0.7c0.1-0.2,0.3-0.3,0.4-0.5
			c0.1-0.1,0.2-0.2,0.4-0.3c0.2-0.1,0.3-0.2,0.5-0.2s0.4-0.1,0.6-0.1c0.3,0,0.5,0.1,0.7,0.1s0.5,0.2,0.7,0.3
			c0.2,0.1,0.5,0.3,0.7,0.5c0.2,0.2,0.3,0.3,0.3,0.3c0,0,0,0,0,0s0.1,0.1,0.3,0.4c0.2,0.3,0.4,0.6,0.6,0.9c0.2,0.4,0.4,0.7,0.6,1.1
			c0.2,0.4,0.3,0.8,0.4,1.2c0.1,0.4,0.2,0.7,0.2,1s0,0.6,0,1s0,0.8-0.1,1.1c-0.1,0.3-0.1,0.6-0.2,0.8c-0.1,0.2-0.2,0.4-0.4,0.6
			c-0.1,0.2-0.3,0.3-0.4,0.5c-0.1,0.1-0.3,0.2-0.5,0.3c-0.2,0.1-0.5,0.1-0.8,0.1c-0.3,0-0.6,0-0.8-0.1c-0.2-0.1-0.5-0.2-0.7-0.3
			c-0.2-0.1-0.5-0.3-0.7-0.6c-0.2-0.2-0.5-0.5-0.7-0.7c-0.2-0.3-0.4-0.5-0.6-0.8s-0.3-0.6-0.5-1c-0.2-0.4-0.3-0.8-0.4-1.1
			c-0.1-0.4-0.2-0.6-0.2-0.8S174.1,34.2,174.1,34.1z"/>
		<path class="st15" d="M203,34.6l0.1,0.4l0,0.1l0,0.1h0V36h0l0,0.1l0,0.1l0,0.1c0,0.1,0,0.1,0,0.2s-0.1,0.3-0.1,0.6
			c-0.1,0.3-0.2,0.7-0.3,1c-0.1,0.3-0.3,0.6-0.5,0.9c-0.2,0.3-0.4,0.6-0.6,0.9c-0.2,0.3-0.4,0.5-0.5,0.6c-0.1,0.1-0.1,0.1-0.1,0.1
			c0,0,0,0-0.1,0.1c0,0-0.1,0.1-0.1,0.1c0,0-0.1,0.1-0.2,0.2c-0.1,0.1-0.3,0.3-0.6,0.5c-0.3,0.2-0.5,0.4-0.8,0.5
			c-0.3,0.1-0.5,0.2-0.8,0.3c-0.3,0.1-0.5,0.1-0.8,0.1c-0.3,0-0.5,0-0.7-0.1s-0.4-0.1-0.5-0.3c-0.2-0.1-0.3-0.2-0.4-0.3
			c-0.1-0.1-0.2-0.3-0.3-0.5c-0.1-0.2-0.2-0.4-0.2-0.7c-0.1-0.2-0.1-0.5-0.1-0.9c0-0.4,0-0.7,0-0.9c0-0.2,0.1-0.4,0.2-0.8
			c0.1-0.4,0.2-0.7,0.4-1.1c0.2-0.4,0.3-0.7,0.5-1s0.4-0.6,0.6-0.9s0.4-0.5,0.5-0.5c0.1-0.1,0.1-0.1,0.2-0.2
			c0.1-0.1,0.1-0.1,0.2-0.2c0.1-0.1,0.2-0.2,0.4-0.3c0.2-0.2,0.5-0.3,0.7-0.5c0.2-0.1,0.5-0.3,0.8-0.3c0.3-0.1,0.6-0.1,0.9-0.2
			c0.3,0,0.6,0,0.7,0.1s0.4,0.1,0.5,0.2c0.2,0.1,0.3,0.2,0.4,0.4c0.1,0.1,0.2,0.3,0.3,0.5C202.8,34.1,202.9,34.3,203,34.6L203,34.6z
			"/>
	</g>
</g>
</svg>
